<svg width="40" height="36" viewBox="0 0 40 36" fill="none" xmlns="http://www.w3.org/2000/svg">
<path d="M6.44718 0C4.73728 0 3.09741 0.651941 1.88833 1.8124C0.679254 2.97287 0 4.54679 0 6.18793V25.3098C0 26.9509 0.679254 28.5248 1.88833 29.6853C3.09741 30.8458 4.73728 31.4977 6.44718 31.4977H20.2441C20.3238 31.3177 20.4176 31.1377 20.5208 30.9644L22.2322 28.1247H6.44718C4.82952 28.1247 3.51664 26.8646 3.51664 25.312V9.00063H29.2983V11.5883C30.3869 11.0303 31.5844 10.6954 32.8149 10.605V6.18793C32.8149 4.54679 32.1357 2.97287 30.9266 1.8124C29.7175 0.651941 28.0777 0 26.3678 0H6.44718ZM28.1847 22.7266C27.4274 21.712 27.0036 20.5032 26.9679 19.2556C26.9321 18.0079 27.286 16.7786 27.9841 15.7256C28.6821 14.6726 29.6924 13.844 30.885 13.3465C32.0776 12.8491 33.398 12.7054 34.6764 12.9339L31.6029 18.0418C31.3309 18.5197 31.2645 19.0808 31.4178 19.6051C31.5711 20.1295 31.932 20.5755 32.4233 20.8478C32.9146 21.1202 33.4975 21.1973 34.0473 21.0628C34.5971 20.9282 35.0702 20.5926 35.3657 20.1277L38.4369 15.0198C39.2787 15.9651 39.8078 17.1297 39.9568 18.3649C40.1057 19.6001 39.8677 20.85 39.2732 21.9548C38.6786 23.0596 37.7545 23.9693 36.6188 24.5677C35.4831 25.166 34.1873 25.426 32.897 25.3143L27.254 34.6974C26.8936 35.296 26.3003 35.7327 25.6046 35.9114C24.9088 36.0901 24.1676 35.9962 23.5439 35.6504C22.9203 35.3045 22.4653 34.7351 22.2791 34.0673C22.0929 33.3995 22.1907 32.6881 22.551 32.0895L28.1847 22.7266ZM24.7618 20.5777C24.4669 19.0063 24.6408 17.3869 25.2635 15.9064L20.7576 11.5793C20.5374 11.3681 20.2389 11.2494 19.9276 11.2494C19.6164 11.2494 19.3178 11.3681 19.0977 11.5793C18.8776 11.7906 18.7539 12.0771 18.7539 12.3759C18.7539 12.6746 18.8776 12.9612 19.0977 13.1724L24.1312 18.0013L19.0977 22.8301C18.8776 23.0414 18.7539 23.3279 18.7539 23.6267C18.7539 23.9254 18.8776 24.212 19.0977 24.4232C19.3178 24.6345 19.6164 24.7532 19.9276 24.7532C20.2389 24.7532 20.5374 24.6345 20.7576 24.4232L24.7618 20.5777ZM14.8965 11.5793C15.0057 11.6838 15.0923 11.808 15.1514 11.9447C15.2105 12.0813 15.2409 12.2279 15.2409 12.3759C15.2409 12.5239 15.2105 12.6704 15.1514 12.8071C15.0923 12.9438 15.0057 13.0679 14.8965 13.1724L9.86301 18.0013L14.8965 22.8301C15.1166 23.0414 15.2403 23.3279 15.2403 23.6267C15.2403 23.9254 15.1166 24.212 14.8965 24.4232C14.6764 24.6345 14.3778 24.7532 14.0666 24.7532C13.7553 24.7532 13.4567 24.6345 13.2366 24.4232L7.37557 18.7978C7.2664 18.6933 7.17979 18.5692 7.1207 18.4325C7.0616 18.2958 7.03119 18.1493 7.03119 18.0013C7.03119 17.8533 7.0616 17.7067 7.1207 17.5701C7.17979 17.4334 7.2664 17.3092 7.37557 17.2047L13.2366 11.5793C13.3455 11.4745 13.4749 11.3914 13.6173 11.3347C13.7597 11.278 13.9124 11.2488 14.0666 11.2488C14.2208 11.2488 14.3734 11.278 14.5158 11.3347C14.6582 11.3914 14.7876 11.4745 14.8965 11.5793Z" fill="#2F327D"/>
</svg>
