<svg width="40" height="38" viewBox="0 0 40 38" fill="none" xmlns="http://www.w3.org/2000/svg">
<path d="M15.2244 37.704C18.7216 36.3039 17.9553 32.4435 16.1871 30.0032C14.4385 27.5029 12.0219 25.7828 9.5856 24.1226C7.84732 23.0072 6.29527 21.6162 4.98815 20.0021C4.43803 19.3421 3.31813 18.1219 4.45767 17.8819C5.61686 17.6419 7.62088 18.802 8.64253 19.2421C10.4304 20.0021 12.1987 20.8822 13.849 21.9223L15.8334 18.522C12.7685 16.4618 8.83901 14.6416 5.18462 14.1015C3.10202 13.7815 0.901526 14.2215 0.194225 16.5218C-0.434486 18.502 0.567523 20.5022 1.70706 22.0624C4.39873 25.7227 8.58359 27.4829 11.7075 30.6433C12.3755 31.3033 13.181 32.0834 13.574 33.0035C13.9866 33.8836 13.8883 33.9436 12.9649 33.9436C10.5287 33.9436 7.48335 32.0034 5.49898 30.7233L3.51461 34.1236C6.52063 36.0038 11.5503 38.9442 15.2244 37.704ZM33.3194 10.6611L22.1795 22.0023H17.6803V17.4219L28.8202 6.06065L33.3194 10.6611ZM39.9995 9.10097C39.9799 9.70104 39.3708 10.3211 38.7421 10.9412L33.791 16.0017L32.0817 14.2615L37.19 9.08097L36.0308 7.90084L34.7144 9.24099L30.2152 4.6605L34.4393 0.360038C34.9109 -0.120013 35.6771 -0.120013 36.129 0.360038L38.9386 3.22034C39.4101 3.66039 39.4101 4.46048 38.9386 4.94053C38.526 5.36057 38.133 5.76061 38.133 6.16066C38.0937 6.5607 38.4867 7.00075 38.8796 7.34078C39.4494 7.94085 40.0192 8.50091 39.9995 9.10097Z" fill="#2F327D"/>
</svg>
