<svg width="40" height="34" viewBox="0 0 40 34" fill="none" xmlns="http://www.w3.org/2000/svg">
<path d="M20 0C20.5304 0 21.0391 0.210714 21.4142 0.585786C21.7893 0.960859 22 1.46957 22 2V4H25C28.9782 4 32.7936 5.58035 35.6066 8.3934C38.4196 11.2064 40 15.0218 40 19C40 22.9782 38.4196 26.7936 35.6066 29.6066C32.7936 32.4196 28.9782 34 25 34H15C11.0218 34 7.20644 32.4196 4.3934 29.6066C1.58035 26.7936 0 22.9782 0 19C0 15.0218 1.58035 11.2064 4.3934 8.3934C7.20644 5.58035 11.0218 4 15 4H18V2C18 1.46957 18.2107 0.960859 18.5858 0.585786C18.9609 0.210714 19.4696 0 20 0ZM25 8H15C12.0826 8 9.28473 9.15892 7.22183 11.2218C5.15893 13.2847 4 16.0826 4 19C4 21.9174 5.15893 24.7153 7.22183 26.7782C9.28473 28.8411 12.0826 30 15 30H25C27.9174 30 30.7153 28.8411 32.7782 26.7782C34.8411 24.7153 36 21.9174 36 19C36 16.0826 34.8411 13.2847 32.7782 11.2218C30.7153 9.15892 27.9174 8 25 8ZM27 14C27.4899 14.0001 27.9627 14.1799 28.3287 14.5054C28.6948 14.8309 28.9287 15.2795 28.986 15.766L29 16V17H30C30.5098 17.0006 31.0001 17.1958 31.3707 17.5457C31.7414 17.8956 31.9645 18.3739 31.9943 18.8828C32.0242 19.3917 31.8587 19.8928 31.5315 20.2837C31.2043 20.6746 30.7402 20.9258 30.234 20.986L30 21H29V22C28.9994 22.5098 28.8042 23.0001 28.4543 23.3707C28.1044 23.7414 27.6261 23.9645 27.1172 23.9943C26.6083 24.0242 26.1072 23.8587 25.7163 23.5315C25.3254 23.2043 25.0742 22.7402 25.014 22.234L25 22V21H24C23.4902 20.9994 22.9999 20.8042 22.6293 20.4543C22.2586 20.1044 22.0355 19.6261 22.0057 19.1172C21.9758 18.6083 22.1413 18.1072 22.4685 17.7163C22.7957 17.3254 23.2598 17.0742 23.766 17.014L24 17H25V16C25 15.4696 25.2107 14.9609 25.5858 14.5858C25.9609 14.2107 26.4696 14 27 14ZM13 14C14.3261 14 15.5979 14.5268 16.5355 15.4645C17.4732 16.4021 18 17.6739 18 19C18 20.3261 17.4732 21.5979 16.5355 22.5355C15.5979 23.4732 14.3261 24 13 24C11.6739 24 10.4021 23.4732 9.46447 22.5355C8.52678 21.5979 8 20.3261 8 19C8 17.6739 8.52678 16.4021 9.46447 15.4645C10.4021 14.5268 11.6739 14 13 14ZM13 18C12.7348 18 12.4804 18.1054 12.2929 18.2929C12.1054 18.4804 12 18.7348 12 19C12 19.2652 12.1054 19.5196 12.2929 19.7071C12.4804 19.8946 12.7348 20 13 20C13.2652 20 13.5196 19.8946 13.7071 19.7071C13.8946 19.5196 14 19.2652 14 19C14 18.7348 13.8946 18.4804 13.7071 18.2929C13.5196 18.1054 13.2652 18 13 18Z" fill="#2F327D"/>
</svg>
