<svg width="40" height="29" viewBox="0 0 40 29" fill="none" xmlns="http://www.w3.org/2000/svg">
<path d="M39.875 13.8636L32.75 1.13636C32.375 0.754545 32 0.5 31.625 0.5H8.375C8 0.5 7.625 0.754545 7.375 1.13636L0.25 13.8636C0 14.1182 0 14.2455 0 14.5C0 14.7545 0 14.8818 0.125 15.1364L7.25 27.8636C7.625 28.2455 8 28.5 8.375 28.5H31.5C32 28.5 32.375 28.2455 32.625 27.8636L39.75 15.1364C40 14.8818 40 14.7545 40 14.5C40 14.2455 40 14.1182 39.875 13.8636ZM22.25 13.2273H12.25L17.25 4.31818L22.25 13.2273ZM19.375 3.04545H29.375L24.375 11.9545L19.375 3.04545ZM22.25 15.7727L17.25 24.6818L12.25 15.7727H22.25ZM24.375 17.0455L29.375 25.9545H19.375L24.375 17.0455ZM26.5 15.7727H36.5L31.5 24.6818L26.5 15.7727ZM26.5 13.2273L31.5 4.31818L36.5 13.2273H26.5ZM9.125 3.04545H15L9.25 13.2273H3.375L9.125 3.04545ZM9.125 25.9545L3.375 15.7727H9.25L15 25.9545H9.125Z" fill="#2F327D"/>
</svg>
