<svg width="40" height="40" viewBox="0 0 40 40" fill="none" xmlns="http://www.w3.org/2000/svg">
<path d="M16 24H24V20H16V24ZM16 18H32V14H16V18ZM16 12H32V8H16V12ZM12 32C10.9 32 9.958 31.608 9.174 30.824C8.39 30.04 7.99867 29.0987 8 28V4C8 2.9 8.392 1.958 9.176 1.174C9.96 0.390003 10.9013 -0.00132994 12 3.39559e-06H36C37.1 3.39559e-06 38.042 0.392003 38.826 1.176C39.61 1.96 40.0013 2.90134 40 4V28C40 29.1 39.608 30.042 38.824 30.826C38.04 31.61 37.0987 32.0013 36 32H12ZM12 28H36V4H12V28ZM4 40C2.9 40 1.958 39.608 1.174 38.824C0.390003 38.04 -0.00132994 37.0987 3.39559e-06 36V8H4V36H32V40H4Z" fill="#2F327D"/>
</svg>
