<svg width="40" height="39" viewBox="0 0 40 39" fill="none" xmlns="http://www.w3.org/2000/svg">
<path d="M4.03023 36.5C2.92191 36.5 1.9728 36.1087 1.18287 35.326C0.39429 34.542 0 33.6 0 32.5V4.5C0 3.4 0.39429 2.458 1.18287 1.674C1.9728 0.891333 2.92191 0.5 4.03023 0.5H32.2418C33.3501 0.5 34.2992 0.891333 35.0892 1.674C35.8778 2.458 36.272 3.4 36.272 4.5V15.85C35.6339 15.55 34.979 15.3 34.3073 15.1C33.6356 14.9 32.9471 14.75 32.2418 14.65V4.5H4.03023V30.2C5.70949 28.6 7.61578 27.3 9.74912 26.3C11.8811 25.3 14.1898 24.7167 16.6751 24.55C16.5071 25.1833 16.3728 25.85 16.272 26.55C16.1713 27.25 16.1209 27.9333 16.1209 28.6C14.6096 28.7667 13.1822 29.1333 11.8388 29.7C10.4954 30.2667 9.23594 31.0333 8.06045 32V32.5H16.7254C16.9605 33.2333 17.2292 33.9333 17.5315 34.6C17.8338 35.2667 18.2032 35.9 18.6398 36.5H4.03023ZM18.136 20.5H18.6398C19.4123 19.4 20.3278 18.4247 21.3864 17.574C22.4437 16.7247 23.6104 16.05 24.8867 15.55C24.9874 15.2167 25.0633 14.8833 25.1144 14.55C25.1641 14.2167 25.1889 13.8667 25.1889 13.5C25.1889 11.5667 24.5004 9.91667 23.1234 8.55C21.7464 7.18333 20.084 6.5 18.136 6.5C16.1881 6.5 14.5256 7.18333 13.1486 8.55C11.7716 9.91667 11.0831 11.5667 11.0831 13.5C11.0831 15.4333 11.7716 17.0833 13.1486 18.45C14.5256 19.8167 16.1881 20.5 18.136 20.5ZM18.136 16.5C17.2964 16.5 16.583 16.208 15.996 15.624C15.4076 15.0413 15.1133 14.3333 15.1133 13.5C15.1133 12.6667 15.4076 11.9587 15.996 11.376C16.583 10.792 17.2964 10.5 18.136 10.5C18.9757 10.5 19.689 10.792 20.2761 11.376C20.8645 11.9587 21.1587 12.6667 21.1587 13.5C21.1587 14.3333 20.8645 15.0413 20.2761 15.624C19.689 16.208 18.9757 16.5 18.136 16.5ZM28.2116 38.5L27.6071 35.5C27.204 35.3333 26.8265 35.1587 26.4746 34.976C26.1212 34.792 25.7599 34.5667 25.3904 34.3L22.4685 35.2L20.4534 31.8L22.7708 29.8C22.7036 29.3333 22.67 28.9 22.67 28.5C22.67 28.1 22.7036 27.6667 22.7708 27.2L20.4534 25.2L22.4685 21.8L25.3904 22.7C25.7599 22.4333 26.1212 22.208 26.4746 22.024C26.8265 21.8413 27.204 21.6667 27.6071 21.5L28.2116 18.5H32.2418L32.8463 21.5C33.2494 21.6667 33.6275 21.85 33.9809 22.05C34.3328 22.25 34.6935 22.5 35.063 22.8L37.9849 21.8L40 25.3L37.6826 27.3C37.7498 27.7 37.7834 28.1167 37.7834 28.55C37.7834 28.9833 37.7498 29.4 37.6826 29.8L40 31.8L37.9849 35.2L35.063 34.3C34.6935 34.5667 34.3328 34.792 33.9809 34.976C33.6275 35.1587 33.2494 35.3333 32.8463 35.5L32.2418 38.5H28.2116ZM30.2267 32.5C31.335 32.5 32.2841 32.1087 33.0741 31.326C33.8626 30.542 34.2569 29.6 34.2569 28.5C34.2569 27.4 33.8626 26.458 33.0741 25.674C32.2841 24.8913 31.335 24.5 30.2267 24.5C29.1184 24.5 28.1693 24.8913 27.3793 25.674C26.5908 26.458 26.1965 27.4 26.1965 28.5C26.1965 29.6 26.5908 30.542 27.3793 31.326C28.1693 32.1087 29.1184 32.5 30.2267 32.5Z" fill="#2F327D"/>
</svg>
