<svg width="40" height="40" viewBox="0 0 40 40" fill="none" xmlns="http://www.w3.org/2000/svg">
<path d="M23.8479 40H16.1521C15.639 40 15.1943 39.8333 14.8181 39.5C14.4419 39.1667 14.2195 38.75 14.1511 38.25L13.5354 33.6C13.0908 33.4333 12.6715 33.2333 12.2774 33C11.8834 32.7667 11.4989 32.5167 11.1241 32.25L6.66045 34.05C6.18159 34.2167 5.70274 34.2333 5.22388 34.1C4.74503 33.9667 4.36878 33.6833 4.09515 33.25L0.298507 26.8C0.0248756 26.3667 -0.0606343 25.9 0.0419776 25.4C0.14459 24.9 0.401119 24.5 0.811567 24.2L4.65951 21.35C4.62531 21.1167 4.60821 20.8913 4.60821 20.674V19.326C4.60821 19.1087 4.62531 18.8833 4.65951 18.65L0.811567 15.8C0.401119 15.5 0.14459 15.1 0.0419776 14.6C-0.0606343 14.1 0.0248756 13.6333 0.298507 13.2L4.09515 6.75C4.33458 6.28333 4.70193 5.99133 5.1972 5.874C5.69248 5.75667 6.18022 5.782 6.66045 5.95L11.1241 7.75C11.5003 7.48333 11.8937 7.23333 12.3041 7C12.7146 6.76667 13.125 6.56667 13.5354 6.4L14.1511 1.75C14.2195 1.25 14.4419 0.833333 14.8181 0.5C15.1943 0.166667 15.639 0 16.1521 0H23.8479C24.361 0 24.8057 0.166667 25.1819 0.5C25.5581 0.833333 25.7805 1.25 25.8489 1.75L26.4646 6.4C26.9092 6.56667 27.3285 6.76667 27.7226 7C28.1166 7.23333 28.5011 7.48333 28.8759 7.75L33.3396 5.95C33.8184 5.78333 34.2973 5.76667 34.7761 5.9C35.255 6.03333 35.6312 6.31667 35.9049 6.75L39.7015 13.2C39.9751 13.6333 40.0606 14.1 39.958 14.6C39.8554 15.1 39.5989 15.5 39.1884 15.8L35.3405 18.65C35.3747 18.8833 35.3918 19.1087 35.3918 19.326V20.674C35.3918 20.8913 35.3576 21.1167 35.2892 21.35L39.1371 24.2C39.5476 24.5 39.8041 24.9 39.9067 25.4C40.0093 25.9 39.9238 26.3667 39.6502 26.8L35.8535 33.2C35.5799 33.6333 35.1948 33.9253 34.6981 34.076C34.2015 34.2267 33.7144 34.218 33.2369 34.05L28.8759 32.25C28.4997 32.5167 28.1063 32.7667 27.6959 33C27.2854 33.2333 26.875 33.4333 26.4646 33.6L25.8489 38.25C25.7805 38.75 25.5581 39.1667 25.1819 39.5C24.8057 39.8333 24.361 40 23.8479 40ZM20.1026 27C22.0864 27 23.7795 26.3167 25.1819 24.95C26.5843 23.5833 27.2854 21.9333 27.2854 20C27.2854 18.0667 26.5843 16.4167 25.1819 15.05C23.7795 13.6833 22.0864 13 20.1026 13C18.0846 13 16.3826 13.6833 14.9966 15.05C13.6107 16.4167 12.9184 18.0667 12.9198 20C12.9198 21.9333 13.6121 23.5833 14.9966 24.95C16.3812 26.3167 18.0832 27 20.1026 27ZM20.1026 23C19.2475 23 18.5203 22.708 17.9211 22.124C17.3218 21.54 17.0229 20.832 17.0243 20C17.0243 19.1667 17.3239 18.458 17.9231 17.874C18.5224 17.29 19.2489 16.9987 20.1026 17C20.9577 17 21.6849 17.292 22.2841 17.876C22.8834 18.46 23.1823 19.168 23.181 20C23.181 20.8333 22.8813 21.542 22.2821 22.126C21.6828 22.71 20.9563 23.0013 20.1026 23ZM17.9478 36H22.0009L22.7192 30.7C23.7795 30.4333 24.7632 30.0413 25.6703 29.524C26.5774 29.0067 27.4065 28.382 28.1576 27.65L33.2369 29.7L35.2379 26.3L30.8256 23.05C30.9966 22.5833 31.1163 22.092 31.1847 21.576C31.2531 21.06 31.2873 20.5347 31.2873 20C31.2873 19.4667 31.2531 18.942 31.1847 18.426C31.1163 17.91 30.9966 17.418 30.8256 16.95L35.2379 13.7L33.2369 10.3L28.1576 12.4C27.4052 11.6333 26.5761 10.992 25.6703 10.476C24.7646 9.96 23.7809 9.568 22.7192 9.3L22.0522 4H17.9991L17.2808 9.3C16.2205 9.56667 15.2374 9.95867 14.3317 10.476C13.426 10.9933 12.5962 11.618 11.8423 12.35L6.76306 10.3L4.76213 13.7L9.17444 16.9C9.00342 17.4 8.88371 17.9 8.8153 18.4C8.74689 18.9 8.71269 19.4333 8.71269 20C8.71269 20.5333 8.74689 21.05 8.8153 21.55C8.88371 22.05 9.00342 22.55 9.17444 23.05L4.76213 26.3L6.76306 29.7L11.8423 27.6C12.5948 28.3667 13.4246 29.0087 14.3317 29.526C15.2388 30.0433 16.2218 30.4347 17.2808 30.7L17.9478 36Z" fill="#2F327D"/>
</svg>
