<svg width="40" height="37" viewBox="0 0 40 37" fill="none" xmlns="http://www.w3.org/2000/svg">
<path d="M14.55 32.5H25.45L24.45 28.5H15.55L14.55 32.5ZM14 24.5H26C28.7667 24.5 31.1253 23.5247 33.076 21.574C35.0253 19.6247 36 17.2667 36 14.5C36 11.7333 35.0253 9.37533 33.076 7.426C31.1253 5.47533 28.7667 4.5 26 4.5H14C11.2333 4.5 8.87533 5.47533 6.926 7.426C4.97533 9.37533 4 11.7333 4 14.5C4 17.2667 4.97533 19.6247 6.926 21.574C8.87533 23.5247 11.2333 24.5 14 24.5ZM20 18.5C18.9 18.5 17.9587 18.108 17.176 17.324C16.392 16.5413 16 15.6 16 14.5C16 13.4 16.392 12.458 17.176 11.674C17.9587 10.8913 18.9 10.5 20 10.5C21.1 10.5 22.042 10.8913 22.826 11.674C23.6087 12.458 24 13.4 24 14.5C24 15.6 23.6087 16.5413 22.826 17.324C22.042 18.108 21.1 18.5 20 18.5ZM9 12.5C9.56667 12.5 10.042 12.308 10.426 11.924C10.8087 11.5413 11 11.0667 11 10.5C11 9.93333 10.8087 9.458 10.426 9.074C10.042 8.69133 9.56667 8.5 9 8.5C8.43333 8.5 7.958 8.69133 7.574 9.074C7.19133 9.458 7 9.93333 7 10.5C7 11.0667 7.19133 11.5413 7.574 11.924C7.958 12.308 8.43333 12.5 9 12.5ZM4 36.5V32.5H10.45L11.5 28.3C8.2 27.7333 5.45867 26.1587 3.276 23.576C1.092 20.992 0 17.9667 0 14.5C0 10.6 1.358 7.29133 4.074 4.574C6.79133 1.858 10.1 0.5 14 0.5H26C29.9 0.5 33.208 1.858 35.924 4.574C38.6413 7.29133 40 10.6 40 14.5C40 17.9667 38.9087 20.992 36.726 23.576C34.542 26.1587 31.8 27.7333 28.5 28.3L29.55 32.5H36V36.5H4ZM20 22.5C22.2 22.5 24.0833 21.7167 25.65 20.15C27.2167 18.5833 28 16.7 28 14.5C28 12.3 27.2167 10.4167 25.65 8.85C24.0833 7.28333 22.2 6.5 20 6.5C17.8 6.5 15.9167 7.28333 14.35 8.85C12.7833 10.4167 12 12.3 12 14.5C12 16.7 12.7833 18.5833 14.35 20.15C15.9167 21.7167 17.8 22.5 20 22.5Z" fill="#2F327D"/>
</svg>
