<svg width="69" height="40" fill="none" xmlns="http://www.w3.org/2000/svg"><path d="m67.635 7.926-30.586 31.06a3.17 3.17 0 0 1-1.184.782c-.424.155-.88.232-1.365.232-.486 0-.94-.077-1.365-.232a3.17 3.17 0 0 1-1.184-.782L1.274 7.926C.424 7.066 0 5.991 0 4.7c0-1.29.455-2.396 1.365-3.318C2.275.461 3.338 0 4.551 0c1.214 0 2.276.46 3.186 1.382L34.5 28.48 61.263 1.382c.85-.86 1.895-1.29 3.138-1.29 1.246 0 2.323.461 3.234 1.383C68.545 2.396 69 3.472 69 4.7c0 1.23-.455 2.305-1.365 3.226Z" fill="#fff" fill-opacity=".5"/></svg>