<svg width="33" height="26" fill="none" xmlns="http://www.w3.org/2000/svg"><path d="M5.35 11.75c1.655 0 3-1.457 3-3.25s-1.345-3.25-3-3.25c-1.654 0-3 1.457-3 3.25s1.346 3.25 3 3.25Zm21 0c1.655 0 3-1.457 3-3.25s-1.345-3.25-3-3.25-3 1.457-3 3.25 1.345 3.25 3 3.25Zm1.5 1.625h-3c-.825 0-1.57.36-2.114.944 1.89 1.123 3.23 3.149 3.52 5.556h3.094c.83 0 1.5-.726 1.5-1.625v-1.625c0-1.793-1.345-3.25-3-3.25Zm-12 0c2.902 0 5.25-2.544 5.25-5.688C21.1 4.545 18.752 2 15.85 2c-2.9 0-5.25 2.544-5.25 5.688 0 3.143 2.349 5.687 5.25 5.687ZM19.45 15h-.389c-.975.508-2.058.813-3.21.813-1.154 0-2.232-.305-3.212-.813h-.389c-2.981 0-5.4 2.62-5.4 5.85v1.462c0 1.346 1.008 2.438 2.25 2.438h13.5c1.242 0 2.25-1.092 2.25-2.438V20.85c0-3.23-2.419-5.85-5.4-5.85Zm-10.486-.68c-.543-.585-1.289-.945-2.114-.945h-3c-1.654 0-3 1.457-3 3.25v1.625c0 .899.67 1.625 1.5 1.625h3.09c.295-2.407 1.635-4.433 3.524-5.556Z" fill="#2F327D"/></svg>