<svg width="30" height="26" fill="none" xmlns="http://www.w3.org/2000/svg"><path d="M30 4.333h-4.393C25.071 1.842 22.93 0 20.357 0c-2.571 0-4.714 1.842-5.25 4.333H0V6.5h15.107c.536 2.492 2.679 4.333 5.25 4.333 2.572 0 4.714-1.841 5.25-4.333H30V4.333Zm-9.643 4.334c-1.821 0-3.214-1.409-3.214-3.25 0-1.842 1.393-3.25 3.214-3.25 1.822 0 3.214 1.408 3.214 3.25 0 1.841-1.392 3.25-3.214 3.25ZM0 21.667h4.393C4.929 24.158 7.07 26 9.643 26c2.571 0 4.714-1.842 5.25-4.333H30V19.5H14.893c-.536-2.492-2.679-4.333-5.25-4.333-2.572 0-4.714 1.841-5.25 4.333H0v2.167Zm9.643-4.334c1.821 0 3.214 1.409 3.214 3.25 0 1.842-1.393 3.25-3.214 3.25-1.822 0-3.214-1.408-3.214-3.25 0-1.841 1.392-3.25 3.214-3.25Z" fill="#000"/></svg>