<svg width="24" height="20" fill="none" xmlns="http://www.w3.org/2000/svg"><g clip-path="url(#a)"><path d="M2.4 20c-.66 0-1.225-.245-1.694-.734A2.46 2.46 0 0 1 0 17.5v-15C0 1.812.235 1.224.706.735 1.176.245 1.74 0 2.4 0h19.2c.66 0 1.225.245 1.696.735.47.49.704 1.078.704 1.765v15c0 .688-.235 1.276-.704 1.766-.47.49-1.036.734-1.696.734H2.4Zm9.6-8.969a1.206 1.206 0 0 0 .63-.187l8.49-5.531a1.03 1.03 0 0 0 .48-.907c0-.416-.17-.729-.51-.937-.34-.209-.69-.198-1.05.031L12 8.75 3.96 3.5c-.36-.23-.71-.235-1.05-.016-.34.219-.51.526-.51.922 0 .209.04.39.12.546.08.157.2.277.36.36l8.49 5.532a1.22 1.22 0 0 0 .63.187Z" fill="#fff"/></g><defs><clipPath id="a"><path fill="#fff" d="M0 0h24v20H0z"/></clipPath></defs></svg>