<svg width="23" height="37" fill="none" xmlns="http://www.w3.org/2000/svg"><path d="M11.708 19.809a3.956 3.956 0 0 1-2.778-1.135 3.848 3.848 0 0 1-1.15-2.74 3.85 3.85 0 0 1 1.15-2.74 3.956 3.956 0 0 1 2.778-1.135c1.042 0 2.041.408 2.778 1.135a3.83 3.83 0 0 1 .852 4.223c-.197.47-.487.897-.852 1.257a3.94 3.94 0 0 1-1.274.84 3.975 3.975 0 0 1-1.504.295Zm0-14.725A11.078 11.078 0 0 0 3.93 8.262a10.775 10.775 0 0 0-3.222 7.672c0 8.138 11 20.15 11 20.15s11-12.013 11-20.15c0-2.878-1.159-5.637-3.221-7.672a11.077 11.077 0 0 0-7.779-3.178Z" fill="#fff"/></svg>