<svg width="24" height="24" fill="none" xmlns="http://www.w3.org/2000/svg"><g clip-path="url(#a)"><path d="M4.827 10.387a20.198 20.198 0 0 0 8.786 8.786l2.934-2.933c.36-.36.893-.48 1.36-.32a15.21 15.21 0 0 0 4.76.76c.733 0 1.333.6 1.333 1.333v4.654C24 23.4 23.4 24 22.667 24 10.147 24 0 13.853 0 1.333 0 .6.6 0 1.333 0H6c.733 0 1.333.6 1.333 1.333 0 1.667.267 3.267.76 4.76.147.467.04.987-.333 1.36l-2.933 2.934Z" fill="#fff"/></g><defs><clipPath id="a"><path fill="#fff" d="M0 0h24v24H0z"/></clipPath></defs></svg>