<svg width="24" height="24" fill="none" xmlns="http://www.w3.org/2000/svg"><path d="M10.716 14.947c0-1.136.11-1.954.333-2.453.222-.498.692-1.042 1.41-1.63.627-.506 1.105-.945 1.434-1.317.329-.372.493-.797.492-1.273 0-.576-.21-1.053-.63-1.432-.42-.379-1.005-.568-1.755-.568-.78 0-1.373.217-1.778.652-.405.435-.692.878-.859 1.327L7 7.326c.321-.898.91-1.677 1.766-2.337C9.622 4.33 10.7 4 12 4c1.605 0 2.84.41 3.705 1.232C16.569 6.053 17 7.039 17 8.189c0 .702-.164 1.302-.493 1.8-.328.5-.844 1.064-1.548 1.695-.75.66-1.204 1.162-1.364 1.506-.16.344-.241.93-.242 1.757h-2.637ZM12 20c-.505 0-.936-.165-1.295-.495-.36-.33-.54-.727-.54-1.19 0-.462.18-.859.54-1.19.36-.33.791-.494 1.295-.493.505 0 .937.165 1.296.495.36.33.54.726.539 1.189 0 .463-.18.86-.54 1.19-.36.33-.791.495-1.295.494Z" fill="#696984" fill-opacity=".6"/><rect x="1" y="1" width="22" height="22" rx="11" stroke="#696984" stroke-opacity=".6" stroke-width="2"/></svg>