<svg width="137" height="24" fill="none" xmlns="http://www.w3.org/2000/svg"><path d="m11.988 0 4.086 6.363 7.314 1.92-4.788 5.853.434 7.55-7.046-2.746-7.047 2.746.434-7.55L.587 8.283 7.9 6.363 11.988 0Zm28.256 0 4.087 6.363 7.313 1.92-4.788 5.853.434 7.55-7.046-2.746-7.046 2.746.433-7.55-4.788-5.853 7.314-1.92L40.244 0ZM68.5 0l4.087 6.363 7.314 1.92-4.788 5.853.433 7.55L68.5 18.94l-7.046 2.746.434-7.55-4.789-5.853 7.314-1.92L68.5 0Zm28.256 0 4.087 6.363 7.314 1.92-4.788 5.853.433 7.55-7.046-2.746-7.046 2.746.434-7.55-4.789-5.853 7.314-1.92L96.757 0Zm28.256 0 4.087 6.363 7.314 1.92-4.788 5.853.434 7.55-7.047-2.746-7.046 2.746.434-7.55-4.788-5.853 7.314-1.92L125.012 0Z" fill="#FFD600"/></svg>