<svg width="22" height="22" fill="none" xmlns="http://www.w3.org/2000/svg"><path d="M11 16c-1.383 0-2.562-.488-3.537-1.463C6.488 13.562 6 12.383 6 11s.488-2.563 1.463-3.538C8.438 6.487 9.617 6 11 6s2.563.487 3.538 1.462C15.513 8.437 16 9.617 16 11s-.487 2.562-1.462 3.537C13.563 15.512 12.383 16 11 16ZM1 12a.965.965 0 0 1-.712-.288A.965.965 0 0 1 0 11c0-.283.096-.521.288-.713A.967.967 0 0 1 1 10h2a.97.97 0 0 1 .713.287A.97.97 0 0 1 4 11a.97.97 0 0 1-.287.712A.968.968 0 0 1 3 12H1Zm18 0a.965.965 0 0 1-.712-.288A.965.965 0 0 1 18 11c0-.283.096-.521.288-.713A.967.967 0 0 1 19 10h2a.97.97 0 0 1 .712.287c.192.192.288.43.288.713s-.096.52-.288.712A.965.965 0 0 1 21 12h-2Zm-8-8a.965.965 0 0 1-.712-.288A.965.965 0 0 1 10 3V1c0-.283.096-.521.288-.713A.967.967 0 0 1 11 0a.97.97 0 0 1 .713.287A.97.97 0 0 1 12 1v2a.97.97 0 0 1-.287.712A.968.968 0 0 1 11 4Zm0 18a.965.965 0 0 1-.712-.288A.965.965 0 0 1 10 21v-2c0-.283.096-.52.288-.712A.965.965 0 0 1 11 18c.283 0 .521.096.713.288A.967.967 0 0 1 12 19v2a.97.97 0 0 1-.287.712A.968.968 0 0 1 11 22ZM4.65 6.05 3.575 5a.872.872 0 0 1-.288-.7 1.09 1.09 0 0 1 .288-.725c.2-.2.442-.3.725-.3s.517.1.7.3L6.05 4.65c.183.2.275.433.275.7 0 .267-.092.5-.275.7a.854.854 0 0 1-.687.287 1.068 1.068 0 0 1-.713-.287ZM17 18.425l-1.05-1.075a1.018 1.018 0 0 1-.275-.712c0-.275.092-.505.275-.688a.855.855 0 0 1 .688-.287c.275.008.512.104.712.287L18.425 17c.2.183.296.417.288.7a1.087 1.087 0 0 1-.288.725c-.2.2-.442.3-.725.3a.908.908 0 0 1-.7-.3ZM15.95 6.05a.855.855 0 0 1-.287-.688c.008-.275.104-.512.287-.712L17 3.575a.872.872 0 0 1 .7-.288c.283.009.525.105.725.288.2.2.3.442.3.725s-.1.517-.3.7L17.35 6.05c-.2.183-.433.275-.7.275-.267 0-.5-.092-.7-.275ZM3.575 18.425c-.2-.2-.3-.442-.3-.725s.1-.517.3-.7l1.075-1.05c.2-.183.438-.275.713-.275.275 0 .504.092.687.275.2.183.296.413.288.688a1.07 1.07 0 0 1-.288.712L5 18.425a.869.869 0 0 1-.7.287 1.083 1.083 0 0 1-.725-.287Z" fill="#fff"/></svg>