<svg width="24" height="28" fill="none" xmlns="http://www.w3.org/2000/svg"><path d="m12.706 28-.353-4.2H12c-3.341 0-6.176-1.155-8.506-3.465C1.164 18.025 0 15.213 0 11.9c0-3.313 1.165-6.125 3.494-8.435C5.824 1.155 8.66 0 12 0c1.67 0 3.23.309 4.677.927a12.098 12.098 0 0 1 3.812 2.555 12.02 12.02 0 0 1 2.575 3.78c.623 1.434.935 2.98.936 4.638 0 3.547-1.07 6.726-3.212 9.538-2.14 2.812-4.835 5-8.082 6.562Zm-.741-8.435c.4 0 .74-.14 1.023-.42.283-.28.424-.618.424-1.015 0-.397-.141-.735-.424-1.015a1.4 1.4 0 0 0-1.023-.42c-.4 0-.742.14-1.024.42-.282.28-.423.618-.423 1.015 0 .397.14.735.423 1.015a1.4 1.4 0 0 0 1.024.42ZM12 15.12c.259 0 .494-.093.706-.28.212-.187.353-.443.423-.77.048-.303.177-.578.389-.823.211-.246.576-.625 1.094-1.137a6.47 6.47 0 0 0 1.059-1.365c.282-.49.423-1.015.423-1.575 0-1.19-.406-2.083-1.217-2.678-.811-.596-1.77-.893-2.877-.892-.823 0-1.536.187-2.136.56A4.77 4.77 0 0 0 8.4 7.56a.855.855 0 0 0-.088.805c.107.28.324.478.653.595.235.093.47.093.706 0 .235-.093.447-.268.635-.525s.418-.467.689-.63c.27-.163.606-.245 1.005-.245.635 0 1.112.175 1.43.525.318.35.477.735.476 1.155 0 .397-.118.753-.353 1.068a8.568 8.568 0 0 1-.847.962c-.659.56-1.1 1.015-1.324 1.365-.224.35-.36.828-.405 1.435a.912.912 0 0 0 .265.735c.2.21.453.315.758.315Z" fill="#2F327D"/></svg>