<svg width="428" height="875" fill="none" xmlns="http://www.w3.org/2000/svg"><path d="M347 34s120.5 64.5 59.5 176.5c-43.699 80.234-273.543 81.929-364 194-56.5 70-51 212 21.5 264.5s157.078 57.854 212 80.5c73.062 30.127 53.5 99 53.5 99" stroke="#696984" stroke-opacity=".2" stroke-width="8"/><circle cx="337" cy="30" r="28.5" fill="#fff" stroke="#2F327D" stroke-width="3"/><circle cx="334" cy="845" r="28.5" fill="#fff" stroke="#2F327D" stroke-width="3"/><path d="M333.26 858.36c-1.368 0-2.592-.18-3.672-.54-1.056-.384-1.956-.9-2.7-1.548a6.467 6.467 0 0 1-1.692-2.268 7.088 7.088 0 0 1-.576-2.844h3.384c0 1.224.42 2.232 1.26 3.024.84.768 2.172 1.152 3.996 1.152 1.824 0 3.156-.396 3.996-1.188.84-.816 1.26-1.872 1.26-3.168 0-1.344-.432-2.424-1.296-3.24-.84-.84-2.16-1.26-3.96-1.26h-2.7v-2.88h2.7c1.728 0 2.976-.36 3.744-1.08.768-.744 1.152-1.764 1.152-3.06 0-1.248-.372-2.22-1.116-2.916-.744-.72-2.004-1.08-3.78-1.08-1.704 0-2.952.372-3.744 1.116-.768.72-1.152 1.62-1.152 2.7h-3.384c0-.936.18-1.824.54-2.664.384-.84.924-1.56 1.62-2.16.72-.624 1.584-1.116 2.592-1.476 1.032-.36 2.208-.54 3.528-.54 1.32 0 2.496.18 3.528.54 1.032.36 1.896.84 2.592 1.44.72.6 1.26 1.308 1.62 2.124.36.816.54 1.668.54 2.556 0 1.44-.384 2.664-1.152 3.672-.744.984-1.8 1.68-3.168 2.088 1.44.456 2.58 1.2 3.42 2.232.84 1.032 1.26 2.448 1.26 4.248 0 .96-.192 1.872-.576 2.736a6.564 6.564 0 0 1-1.692 2.232c-.72.624-1.62 1.128-2.7 1.512-1.08.36-2.304.54-3.672.54zm-3.28-818.312h6.012v-18.54l-6.012 4.284V22.12l6.084-4.32h3.384v22.248h4.932V43h-14.4v-2.952z" fill="#2F327D"/><circle cx="47" cy="396" r="28.5" fill="#fff" stroke="#2F327D" stroke-width="3"/><path d="m37.44 406.228 10.08-8.748c.768-.648 1.392-1.236 1.872-1.764.504-.528.9-1.02 1.188-1.476.288-.48.48-.948.576-1.404.12-.456.18-.948.18-1.476 0-1.416-.42-2.58-1.26-3.492-.84-.936-1.992-1.404-3.456-1.404-1.752 0-3.096.48-4.032 1.44-.936.936-1.404 2.268-1.404 3.996H37.8c0-1.224.204-2.352.612-3.384a7.837 7.837 0 0 1 1.8-2.7 8.37 8.37 0 0 1 2.808-1.728c1.08-.432 2.28-.648 3.6-.648 1.272 0 2.412.204 3.42.612 1.008.384 1.86.936 2.556 1.656a6.882 6.882 0 0 1 1.584 2.484c.36.96.54 2.016.54 3.168 0 .864-.132 1.668-.396 2.412a8.581 8.581 0 0 1-1.116 2.124 12.594 12.594 0 0 1-1.692 1.98 46.362 46.362 0 0 1-2.16 1.944l-7.524 6.228H55.08V409H37.44v-2.772z" fill="#2F327D"/></svg>