<svg width="69" height="40" viewBox="0 0 69 40" fill="none" xmlns="http://www.w3.org/2000/svg">
<path d="M67.6346 7.92627L37.0488 38.9862C36.6847 39.3548 36.2902 39.6154 35.8654 39.7677C35.4406 39.9226 34.9855 40 34.5 40C34.0145 40 33.5594 39.9226 33.1346 39.7677C32.7098 39.6154 32.3153 39.3548 31.9512 38.9862L1.2744 7.92627C0.4248 7.06606 -1.48659e-06 5.99079 -1.54299e-06 4.70046C-1.59939e-06 3.41014 0.455143 2.30415 1.36543 1.38249C2.27572 0.460834 3.33773 3.6688e-06 4.55145 3.61575e-06C5.76517 3.56269e-06 6.82717 0.460834 7.73746 1.38249L34.5 28.4793L61.2625 1.38249C62.1121 0.522275 63.1584 0.092168 64.4012 0.0921679C65.6465 0.0921678 66.7243 0.552995 67.6346 1.47466C68.5449 2.39631 69 3.47158 69 4.70046C69 5.92934 68.5449 7.00461 67.6346 7.92627Z" fill="white" fill-opacity="0.5"/>
</svg>
