<svg width="50" height="51" fill="none" xmlns="http://www.w3.org/2000/svg"><path d="M0 8.5a8 8 0 0 1 8-8h34a8 8 0 0 1 8 8v34a8 8 0 0 1-8 8H8a8 8 0 0 1-8-8v-34z" fill="#23BDEE"/><path d="M18 11.5a1 1 0 0 0-1 1v2h2v-2a1 1 0 0 0-1-1zM32 11.5a1 1 0 0 0-1 1v2h2v-2a1 1 0 0 0-1-1zM36 14.5h-3v4a1 1 0 1 1-2 0v-4H19v4a1 1 0 1 1-2 0v-4h-3a3 3 0 0 0-3 3v19a3 3 0 0 0 3 3h22a3 3 0 0 0 3-3v-19a3 3 0 0 0-3-3zm1 22a1 1 0 0 1-1 1H14a1 1 0 0 1-1-1v-13h24v13z" fill="#fff"/><path d="M19 25.5h-2a1 1 0 1 0 0 2h2a1 1 0 1 0 0-2zM26 25.5h-2a1 1 0 1 0 0 2h2a1 1 0 1 0 0-2zM33 25.5h-2a1 1 0 1 0 0 2h2a1 1 0 1 0 0-2zM19 29.5h-2a1 1 0 1 0 0 2h2a1 1 0 1 0 0-2zM26 29.5h-2a1 1 0 1 0 0 2h2a1 1 0 1 0 0-2zM33 29.5h-2a1 1 0 1 0 0 2h2a1 1 0 1 0 0-2zM19 33.5h-2a1 1 0 1 0 0 2h2a1 1 0 0 0 0-2zM26 33.5h-2a1 1 0 1 0 0 2h2a1 1 0 1 0 0-2zM33 33.5h-2a1 1 0 1 0 0 2h2a1 1 0 1 0 0-2z" fill="#fff"/></svg>