<svg width="50" height="50" viewBox="0 0 50 50" fill="none" xmlns="http://www.w3.org/2000/svg">
<path d="M0 8C0 3.58172 3.58172 0 8 0H42C46.4183 0 50 3.58172 50 8V42C50 46.4183 46.4183 50 42 50H8C3.58172 50 0 46.4183 0 42V8Z" fill="#F88C3D"/>
<path d="M38 15H12L25 25.708L38.147 15.03C38.0989 15.0159 38.0497 15.0059 38 15Z" fill="white"/>
<path d="M25.631 27.776C25.2625 28.0777 24.7324 28.0777 24.364 27.776L11 16.766V34C11 34.5523 11.4477 35 12 35H38C38.5523 35 39 34.5523 39 34V16.914L25.631 27.776Z" fill="white"/>
</svg>
