<svg width="130" height="110" fill="none" xmlns="http://www.w3.org/2000/svg"><g clip-path="url(#a)"><mask id="b" style="mask-type:luminance" maskUnits="userSpaceOnUse" x="0" y="0" width="130" height="110"><path d="M130 0H0v110h130V0Z" fill="#fff"/></mask><g mask="url(#b)"><path d="M13.806 101.749 6.074 53.738 124.395 1.454 13.807 101.749Z" fill="#06F" fill-opacity=".65"/><path fill-rule="evenodd" clip-rule="evenodd" d="M92.403 79.483a.5.5 0 0 1-.615-.35l-2.876-10.469a.5.5 0 0 1 .965-.265l2.876 10.47a.5.5 0 0 1-.35.614Zm20.168-25.866a.5.5 0 0 1-.586.395l-10.658-2.066a.5.5 0 0 1 .19-.982l10.659 2.067a.5.5 0 0 1 .395.586Zm-5.45 15.092a.5.5 0 0 1-.698.114l-8.817-6.335a.5.5 0 0 1 .584-.812l8.817 6.335a.5.5 0 0 1 .114.698ZM14.986 43.36c1.832 1.101 4.56 3.86 8.335 8.848a.5.5 0 0 0 .798-.604c-3.777-4.989-6.604-7.89-8.618-9.102-.997-.6-1.917-.858-2.688-.582-.797.286-1.217 1.058-1.41 1.976-.196.93-.193 2.142-.034 3.552.16 1.418.48 3.066.94 4.883.921 3.633 2.408 7.968 4.31 12.518 3.804 9.093 9.296 19.102 15.324 26.132 3.013 3.514 6.185 6.314 9.375 7.872 3.204 1.564 6.457 1.885 9.555.375 6.145-2.995 7.713-9.58 6.837-17.146a42.61 42.61 0 0 0-.474-3.07c2.508 1.444 5.007 2.333 7.384 2.468 2.174.122 4.241-.387 6.094-1.671 1.847-1.28 3.45-3.31 4.745-6.177 1.587-3.517 2.145-7.345 1.978-11.221 2.445.863 4.852 1.199 7.06.881 3.53-.507 6.475-2.676 8.19-6.834 1.108-2.684 1.37-5.583 1.06-8.493 2.557-.029 4.793-1.662 6.392-4.859 1.621-3.238 2.633-8.144 2.74-14.867l2.337 2.338a.501.501 0 0 0 .708-.707l-3.182-3.182a.501.501 0 0 0-.708 0l-3.182 3.182a.5.5 0 1 0 .707.707l2.319-2.318c-.109 6.63-1.11 11.356-2.633 14.4-1.516 3.03-3.504 4.328-5.627 4.306a27.428 27.428 0 0 0-.848-3.751c-1.321-4.43-3.665-8.665-6.088-12-1.212-1.668-2.45-3.118-3.597-4.258-1.14-1.134-2.214-1.986-3.104-2.431-.44-.221-.883-.366-1.289-.36-.44.008-.834.197-1.075.603-.218.366-.272.847-.232 1.38.042.545.187 1.21.437 1.999 1.912 6.019 4.392 10.833 7.053 14.206 2.513 3.187 5.243 5.153 7.857 5.541.326 2.84.084 5.63-.969 8.182-1.591 3.859-4.256 5.773-7.409 6.227-2.131.306-4.518-.052-6.983-.98a37.592 37.592 0 0 0-1.061-6.309c-1.59-6.275-4.625-12.28-7.85-16.915-1.612-2.319-3.279-4.303-4.845-5.811-1.556-1.498-3.051-2.564-4.325-2.989-.641-.214-1.27-.28-1.837-.11-.583.174-1.032.58-1.328 1.174-.566 1.137-.6 3.013-.093 5.644 2.05 10.628 9.417 19.843 17.124 24.384a25.602 25.602 0 0 0 3.26 1.63c.224 3.9-.3 7.722-1.869 11.2-1.24 2.75-2.742 4.615-4.403 5.766-1.654 1.147-3.497 1.606-5.467 1.494-2.422-.137-5.043-1.137-7.714-2.797-1.412-6.453-4.217-13.41-7.415-19.673-3.941-7.715-8.512-14.44-11.891-17.923-.846-.871-1.633-1.557-2.331-2.005-.672-.43-1.37-.712-1.993-.574-.704.155-1.066.769-1.201 1.526-.136.758-.083 1.805.152 3.144 1.875 10.686 9.963 24.233 18.857 32.297 1.618 1.467 3.273 2.763 4.933 3.828.279 1.326.496 2.628.642 3.893.86 7.432-.725 13.424-6.282 16.132-2.753 1.342-5.674 1.09-8.677-.375-3.017-1.473-6.085-4.16-9.055-7.624-5.936-6.923-11.38-16.829-15.16-25.867-1.889-4.516-3.357-8.803-4.263-12.378-.453-1.787-.763-3.39-.916-4.749-.154-1.366-.146-2.456.018-3.234.167-.79.461-1.13.77-1.24.333-.12.909-.06 1.835.497Zm40.77 33.53a38.611 38.611 0 0 1-3.944-3.155C43.054 65.793 35.1 52.437 33.27 42.006c-.228-1.3-.258-2.21-.153-2.794.105-.585.306-.699.432-.727.208-.045.605.035 1.238.44.607.39 1.333 1.015 2.153 1.86 3.283 3.383 7.8 10.011 11.718 17.681 3.012 5.898 5.65 12.375 7.099 18.424ZM76.33 60.9a25.042 25.042 0 0 1-2.667-1.37c-7.48-4.407-14.658-13.387-16.65-23.712-.503-2.608-.4-4.19.006-5.008.19-.383.438-.578.72-.663.3-.09.707-.074 1.233.102 1.062.354 2.427 1.296 3.948 2.76 1.51 1.454 3.135 3.386 4.718 5.662 3.169 4.554 6.146 10.45 7.701 16.59.475 1.872.816 3.761.991 5.639Zm16.257-14.045c-2.17-.434-4.582-2.146-6.928-5.12-2.568-3.256-4.999-7.954-6.885-13.89-.237-.748-.36-1.332-.392-1.77-.034-.451.03-.688.094-.796.04-.068.091-.11.232-.113.173-.003.445.064.824.254.75.375 1.736 1.142 2.847 2.246 1.104 1.098 2.307 2.506 3.493 4.137 2.374 3.266 4.657 7.401 5.938 11.697.333 1.115.596 2.237.777 3.355Z" fill="#262626"/></g></g><defs><clipPath id="a"><path fill="#fff" d="M0 0h130v110H0z"/></clipPath></defs></svg>