<svg width="130" height="110" fill="none" xmlns="http://www.w3.org/2000/svg"><g clip-path="url(#a)"><mask id="b" style="mask-type:luminance" maskUnits="userSpaceOnUse" x="0" y="0" width="130" height="110"><path d="M130 0H0v110h130V0Z" fill="#fff"/></mask><g mask="url(#b)"><path d="m125.727 30.23-8.712-24.787-21.766 28.916-6.844-10.82-27.914 41.22 26.122-16.522 6.844 10.82 32.27-28.827Z" fill="#4BD0A0" fill-opacity=".75"/><path fill-rule="evenodd" clip-rule="evenodd" d="m119.1 44.872-2.287 18.322-25.349 6.808-.629-9.037-18.608 1.294 26.492-15.97.629 9.038L119.1 44.872ZM97.835 47.99l.622 8.94 19.413-10.276-1.966 15.749-23.527 6.319-.613-8.824-15.468 1.075L97.835 47.99ZM83.068 12.202l6.383 9.423-8.986 13.454-3.963-3.934-8.1 8.16 5.793-18.166 3.963 3.934 4.91-12.871ZM74.65 23l3.894 3.865 4.772-12.512 4.929 7.275-7.938 11.885-3.81-3.783-5.883 5.925L74.65 23ZM30.163 97.287a.5.5 0 0 0 .24.665c11.608 5.428 23.406-.926 30.95-9.046l.01-.01C68.847 80.39 69.67 74 67.706 70.47c-.981-1.764-2.642-2.755-4.388-2.852-1.748-.097-3.54.703-4.78 2.428-2.285 3.18-4.771 6.281-7.288 8.256-2.522 1.978-4.931 2.724-7.178 1.53-.533-.283-1.102-.829-1.655-1.614-.549-.78-1.062-1.768-1.493-2.895-.864-2.256-1.385-5.025-1.24-7.712.147-2.688.957-5.254 2.71-7.16 1.744-1.897 4.476-3.202 8.593-3.273 4.704-.08 7.998-1.045 10.092-2.549 2.117-1.52 2.98-3.575 2.816-5.702-.322-4.177-4.555-8.437-10.255-9.59-4.6-1.568-10.751-1.27-16.073 1.732-5.355 3.02-9.838 8.758-11.088 17.999a.5.5 0 0 0 .99.134c1.212-8.953 5.527-14.407 10.59-17.262 5.083-2.867 10.952-3.134 15.288-1.646a.515.515 0 0 0 .064.018c5.421 1.084 9.208 5.084 9.486 8.692.137 1.768-.56 3.49-2.401 4.813-1.864 1.339-4.929 2.283-9.526 2.361-4.333.075-7.347 1.459-9.312 3.596-1.956 2.128-2.817 4.942-2.972 7.783-.154 2.842.395 5.75 1.304 8.124.455 1.187 1.004 2.252 1.61 3.112.601.855 1.28 1.538 2.003 1.922 2.777 1.476 5.633.438 8.264-1.627 2.637-2.068 5.193-5.27 7.484-8.459 1.05-1.46 2.52-2.09 3.911-2.013 1.394.078 2.751.867 3.57 2.34 1.638 2.943 1.194 8.85-6.216 17.275-7.438 8.002-18.78 13.963-29.789 8.815a.5.5 0 0 0-.664.24Z" fill="#262626"/><path fill-rule="evenodd" clip-rule="evenodd" d="M21.017 51.846a.52.52 0 0 0 .569-.44c.936-7.307 3.258-13.707 7.137-18.438 3.868-4.716 9.308-7.8 16.563-8.461 1.64-.15 3.642.114 5.539.752 1.898.638 3.645 1.634 4.81 2.911 1.154 1.266 1.728 2.793 1.345 4.556-.388 1.785-1.776 3.897-4.75 6.27a.478.478 0 0 0-.077.69.523.523 0 0 0 .718.056c3.069-2.449 4.653-4.745 5.108-6.84.46-2.117-.25-3.942-1.568-5.387-1.308-1.434-3.22-2.506-5.227-3.18-2.008-.675-4.157-.968-5.97-.802-7.538.686-13.24 3.908-17.287 8.843-4.036 4.92-6.404 11.515-7.354 18.935a.48.48 0 0 0 .444.535Z" fill="#262626"/><path fill-rule="evenodd" clip-rule="evenodd" d="M7.477 70.01c.11.246.405.34.658.212 1.284-.652 2.03-1.743 2.414-3.104.377-1.34.414-2.967.288-4.77-.125-1.797-.415-3.82-.725-5.975l-.007-.049c-.313-2.18-.646-4.504-.857-6.91-.422-4.818-.352-9.92 1.322-14.758 1.667-4.82 4.938-9.413 10.986-13.21 4.316-2.708 8.983-2.96 11.524-1.58 1.25.68 1.961 1.732 1.945 3.077-.016 1.375-.791 3.174-2.792 5.329-.194.209-.193.525.002.706.196.181.512.158.706-.05 2.092-2.255 3.061-4.301 3.082-6.041.021-1.77-.938-3.102-2.422-3.909-2.929-1.59-7.992-1.22-12.531 1.63-6.257 3.926-9.691 8.72-11.441 13.779-1.744 5.04-1.802 10.31-1.375 15.181.214 2.438.55 4.788.863 6.965l.003.024c.313 2.174.599 4.167.721 5.928.124 1.773.076 3.259-.252 4.422-.321 1.142-.902 1.944-1.855 2.428a.529.529 0 0 0-.257.676Z" fill="#262626"/></g></g><defs><clipPath id="a"><path fill="#fff" d="M0 0h130v110H0z"/></clipPath></defs></svg>