<svg width="150" height="86" fill="none" xmlns="http://www.w3.org/2000/svg"><g clip-path="url(#a)"><mask id="b" style="mask-type:luminance" maskUnits="userSpaceOnUse" x="0" y="0" width="150" height="86"><path d="M150 0H0v86h150V0Z" fill="#fff"/></mask><g mask="url(#b)"><path d="M5.566 68.257a6.151 6.151 0 0 1 3.227-6.697l89.615-45.862c-5.913 17.355-5.545 27.774 1.964 45.373l-87.941 12.06a6.151 6.151 0 0 1-6.865-4.874Z" fill="#EB2377" fill-opacity=".7"/><path fill-rule="evenodd" clip-rule="evenodd" d="M102.399 26.758a.537.537 0 0 1-.256.681L48.666 54.466a.466.466 0 0 1-.648-.225.537.537 0 0 1 .255-.682l53.478-27.026a.466.466 0 0 1 .648.225ZM46.619 56.08a.537.537 0 0 1-.248.683l-27.81 14.42c-1.65.856-2.523 2.784-2.062 4.555.462 1.78 2.131 2.875 3.937 2.585l29.135-4.686a.464.464 0 0 1 .539.423.539.539 0 0 1-.441.58l-29.135 4.685c-2.288.368-4.402-1.02-4.987-3.273-.584-2.245.522-4.687 2.611-5.77l27.81-14.42a.466.466 0 0 1 .65.218Zm5.386 19.286a.539.539 0 0 1 .442-.58l58.078-9.2a.465.465 0 0 1 .538.424.54.54 0 0 1-.443.58l-58.077 9.2a.464.464 0 0 1-.538-.424Zm79.224-20.073c1.183-4.446 1.258-10.183-.115-16.133-1.373-5.95-3.911-10.89-6.855-14.077-2.971-3.216-6.176-4.482-8.955-3.634-2.78.847-5.018 3.773-6.212 8.26-1.183 4.445-1.257 10.182.116 16.133 1.373 5.95 3.91 10.89 6.854 14.077 2.971 3.216 6.177 4.482 8.956 3.634 2.779-.848 5.018-3.774 6.211-8.26Zm-5.986 9.234c6.577-2.006 9.634-13.494 6.827-25.659-2.806-12.165-10.414-20.4-16.991-18.394-6.578 2.006-9.634 13.494-6.828 25.66 2.807 12.164 10.414 20.4 16.992 18.393Z" fill="#000"/><path fill-rule="evenodd" clip-rule="evenodd" d="M129.433 52.051c.757-3.406.715-7.854-.359-12.51-1.074-4.655-2.955-8.541-5.082-11.068-2.17-2.579-4.369-3.506-6.127-2.97-1.758.537-3.268 2.595-4.041 6.072-.758 3.406-.716 7.854.358 12.51 1.074 4.655 2.955 8.541 5.082 11.068 2.17 2.579 4.369 3.506 6.127 2.97 1.758-.536 3.268-2.595 4.042-6.072Zm-3.817 7.046c4.641-1.415 6.617-10.301 4.415-19.847-2.203-9.546-7.75-16.137-12.391-14.721-4.64 1.415-6.617 10.301-4.415 19.847 2.203 9.546 7.75 16.137 12.391 14.721ZM99.993 32.59c-1.23 4.451-1.327 10.147.028 16.02 1.355 5.873 3.895 10.765 6.882 13.93 2.998 3.177 6.362 4.54 9.401 3.612a.46.46 0 0 1 .591.341.544.544 0 0 1-.366.633c-3.537 1.08-7.24-.559-10.349-3.854-3.121-3.307-5.729-8.36-7.115-14.37-1.387-6.01-1.3-11.885-.016-16.536 1.28-4.634 3.789-8.166 7.327-9.245a.46.46 0 0 1 .591.34.544.544 0 0 1-.366.634c-3.04.927-5.374 4.027-6.608 8.495Z" fill="#000"/><path d="m119.938 30.462.499.82c.304.5.81.84 1.386.935l.949.155-.821.5c-.499.303-.84.809-.934 1.385l-.155.948-.5-.82a1.998 1.998 0 0 0-1.386-.934l-.948-.155.821-.5c.499-.303.84-.81.934-1.386l.155-.948Z" fill="#fff"/><path fill-rule="evenodd" clip-rule="evenodd" d="M119.842 29.971a.5.5 0 0 1 .523.231l.5.82c.227.375.607.63 1.039.701l.948.155a.5.5 0 0 1 .179.92l-.82.5c-.374.228-.63.608-.701 1.04l-.155.948a.499.499 0 0 1-.92.18l-.5-.821a1.5 1.5 0 0 0-1.039-.7l-.949-.156a.5.5 0 0 1-.179-.92l.821-.5c.374-.228.63-.607.7-1.04l.155-.948a.5.5 0 0 1 .398-.41Zm.359 1.843a2.493 2.493 0 0 1-.821 1.218c.479.146.904.432 1.218.821.146-.479.432-.903.822-1.218a2.5 2.5 0 0 1-1.219-.82Zm-5.122-10.716a.5.5 0 0 1-.344.618l-8.05 2.3a.5.5 0 1 1-.275-.961l8.05-2.3a.5.5 0 0 1 .619.343Zm3.527-19.596a.5.5 0 0 1 .459.538l-1.004 12.593a.5.5 0 0 1-.997-.08l1.004-12.593a.5.5 0 0 1 .538-.458Zm20.7 4.962a.5.5 0 0 1 .057.704l-9.287 10.918a.499.499 0 1 1-.761-.648l9.287-10.917a.499.499 0 0 1 .704-.057Zm8.754 17.456a.501.501 0 0 1-.413.573l-10.894 1.782a.5.5 0 1 1-.161-.987l10.893-1.781a.5.5 0 0 1 .575.412Zm-23.138 40.306a.5.5 0 0 1-.344.618l-8.05 2.3a.5.5 0 1 1-.275-.962l8.051-2.3a.5.5 0 0 1 .618.344ZM52.96 51.765c.143.23.07.548-.161.709-1.236.86-2.184 2.52-2.66 4.708-.472 2.176-.46 4.81.164 7.516.635 2.752 1.788 5.078 3.167 6.702 1.387 1.634 2.956 2.509 4.418 2.493a.466.466 0 0 1 .466.504.537.537 0 0 1-.515.514c-1.841.019-3.642-1.068-5.124-2.814-1.49-1.754-2.704-4.225-3.369-7.107-.654-2.835-.674-5.626-.164-7.974.507-2.336 1.557-4.3 3.103-5.376a.468.468 0 0 1 .676.125Z" fill="#000"/><path fill-rule="evenodd" clip-rule="evenodd" d="M48.611 53.918a.538.538 0 0 1-.21.697c-1.213.723-2.159 2.26-2.642 4.354-.48 2.081-.483 4.637.124 7.27.55 2.38 1.544 4.423 2.739 5.924 1.2 1.508 2.572 2.434 3.86 2.662.265.047.43.31.368.586a.526.526 0 0 1-.59.417c-1.58-.28-3.128-1.378-4.412-2.99-1.289-1.62-2.342-3.796-2.922-6.308-.637-2.762-.644-5.481-.122-7.74.518-2.246 1.58-4.116 3.145-5.049a.465.465 0 0 1 .662.177Z" fill="#000"/></g></g><defs><clipPath id="a"><path fill="#fff" d="M0 0h150v86H0z"/></clipPath></defs></svg>