<svg width="40" height="36" fill="none" xmlns="http://www.w3.org/2000/svg"><path d="M6.447 0c-1.71 0-3.35.652-4.559 1.812A6.064 6.064 0 0 0 0 6.188V25.31c0 1.64.68 3.215 1.888 4.375a6.587 6.587 0 0 0 4.56 1.813h13.796c.08-.18.174-.36.277-.534l1.711-2.84H6.447c-1.617 0-2.93-1.26-2.93-2.812V9.001h25.781v2.587a9.189 9.189 0 0 1 3.517-.983V6.188a6.07 6.07 0 0 0-1.888-4.376A6.587 6.587 0 0 0 26.367 0H6.448Zm21.738 22.727a6.09 6.09 0 0 1-1.217-3.471 6.067 6.067 0 0 1 1.016-3.53 6.452 6.452 0 0 1 2.901-2.38 6.77 6.77 0 0 1 3.791-.412l-3.073 5.108a2.011 2.011 0 0 0-.185 1.563 2.1 2.1 0 0 0 1.005 1.243c.492.272 1.075.35 1.624.215a2.169 2.169 0 0 0 1.319-.935l3.07-5.108a6.135 6.135 0 0 1 1.52 3.345 6.04 6.04 0 0 1-.683 3.59 6.384 6.384 0 0 1-2.654 2.613 6.747 6.747 0 0 1-3.722.746l-5.643 9.383a2.704 2.704 0 0 1-1.65 1.214 2.816 2.816 0 0 1-2.06-.26 2.624 2.624 0 0 1-1.265-1.584 2.515 2.515 0 0 1 .272-1.977l5.634-9.363Zm-3.423-2.15a8.152 8.152 0 0 1 .502-4.67l-4.506-4.328a1.2 1.2 0 0 0-.83-.33 1.2 1.2 0 0 0-.83.33c-.22.212-.344.498-.344.797 0 .299.124.585.344.796l5.033 4.83-5.033 4.828c-.22.211-.344.498-.344.797 0 .298.124.585.344.796.22.212.518.33.83.33a1.2 1.2 0 0 0 .83-.33l4.004-3.845Zm-9.866-8.998c.11.105.196.229.255.366a1.085 1.085 0 0 1-.255 1.227l-5.033 4.83 5.034 4.828c.22.211.343.498.343.797a1.1 1.1 0 0 1-.344.796c-.22.212-.518.33-.83.33a1.2 1.2 0 0 1-.83-.33l-5.86-5.625a1.123 1.123 0 0 1-.255-.365 1.086 1.086 0 0 1 .255-1.228l5.86-5.626a1.215 1.215 0 0 1 1.66 0Z" fill="#2F327D"/></svg>