<svg width="40" height="38" fill="none" xmlns="http://www.w3.org/2000/svg"><path d="M15.224 37.704c3.498-1.4 2.731-5.26.963-7.7-1.749-2.501-4.165-4.221-6.601-5.881a19.399 19.399 0 0 1-4.598-4.12c-.55-.66-1.67-1.881-.53-2.121 1.159-.24 3.163.92 4.185 1.36 1.787.76 3.556 1.64 5.206 2.68l1.984-3.4c-3.065-2.06-6.994-3.88-10.648-4.42-2.083-.32-4.283.12-4.99 2.42-.63 1.98.373 3.98 1.512 5.54 2.692 3.66 6.877 5.42 10 8.581.668.66 1.474 1.44 1.867 2.36.413.88.314.94-.61.94-2.435 0-5.48-1.94-7.465-3.22l-1.984 3.4c3.006 1.88 8.035 4.821 11.71 3.581ZM33.32 10.661 22.18 22.002h-4.5v-4.58L28.82 6.06l4.5 4.6ZM40 9.101c-.02.6-.628 1.22-1.257 1.84l-4.951 5.06-1.71-1.74 5.109-5.18-1.16-1.18-1.316 1.34-4.499-4.58L34.44.36a1.171 1.171 0 0 1 1.69 0l2.81 2.86c.471.44.471 1.24 0 1.72-.413.42-.806.82-.806 1.22-.04.4.354.84.747 1.18.57.6 1.14 1.16 1.12 1.761Z" fill="#2F327D"/></svg>