<svg width="40" height="29" fill="none" xmlns="http://www.w3.org/2000/svg"><path d="M39.875 13.864 32.75 1.136C32.375.755 32 .5 31.625.5H8.375c-.375 0-.75.255-1 .636L.25 13.864c-.25.254-.25.381-.25.636s0 .382.125.636L7.25 27.864c.375.381.75.636 1.125.636H31.5c.5 0 .875-.255 1.125-.636l7.125-12.728c.25-.254.25-.381.25-.636s0-.382-.125-.636Zm-17.625-.637h-10l5-8.909 5 8.91ZM19.375 3.045h10l-5 8.91-5-8.91Zm2.875 12.728-5 8.909-5-8.91h10Zm2.125 1.273 5 8.909h-10l5-8.91Zm2.125-1.273h10l-5 8.909-5-8.91Zm0-2.546 5-8.909 5 8.91h-10ZM9.125 3.045H15L9.25 13.227H3.375l5.75-10.182Zm0 22.91-5.75-10.182H9.25L15 25.954H9.125Z" fill="#2F327D"/></svg>