<svg width="40" height="39" fill="none" xmlns="http://www.w3.org/2000/svg"><path d="M4.03 36.5c-1.108 0-2.057-.391-2.847-1.174C.394 34.542 0 33.6 0 32.5v-28c0-1.1.394-2.042 1.183-2.826C1.973.891 2.922.5 4.03.5h28.212c1.108 0 2.057.391 2.847 1.174.789.784 1.183 1.726 1.183 2.826v11.35a14.005 14.005 0 0 0-4.03-1.2V4.5H4.03v25.7a21.4 21.4 0 0 1 5.72-3.9c2.131-1 4.44-1.583 6.925-1.75a17.56 17.56 0 0 0-.403 2c-.1.7-.151 1.383-.151 2.05a15.26 15.26 0 0 0-4.282 1.1A15.282 15.282 0 0 0 8.06 32v.5h8.665c.235.733.504 1.433.806 2.1.303.667.672 1.3 1.109 1.9H4.03Zm14.106-16h.504a14.228 14.228 0 0 1 2.746-2.926 13.304 13.304 0 0 1 3.5-2.024c.101-.333.177-.667.228-1a7.07 7.07 0 0 0 .075-1.05c0-1.933-.689-3.583-2.066-4.95-1.377-1.367-3.039-2.05-4.987-2.05s-3.61.683-4.987 2.05c-1.377 1.367-2.066 3.017-2.066 4.95 0 1.933.689 3.583 2.066 4.95 1.377 1.367 3.04 2.05 4.987 2.05Zm0-4c-.84 0-1.553-.292-2.14-.876a2.877 2.877 0 0 1-.883-2.124c0-.833.295-1.541.883-2.124.587-.584 1.3-.876 2.14-.876.84 0 1.553.292 2.14.876.588.583.883 1.29.883 2.124 0 .833-.294 1.541-.883 2.124-.587.584-1.3.876-2.14.876Zm10.076 22-.605-3c-.403-.167-.78-.341-1.132-.524a8.827 8.827 0 0 1-1.085-.676l-2.922.9-2.015-3.4 2.318-2a9.16 9.16 0 0 1-.101-1.3c0-.4.034-.833.1-1.3l-2.317-2 2.015-3.4 2.922.9a8.79 8.79 0 0 1 1.085-.676c.351-.183.729-.357 1.132-.524l.605-3h4.03l.604 3c.403.167.782.35 1.135.55.352.2.712.45 1.082.75l2.922-1L40 25.3l-2.317 2c.067.4.1.817.1 1.25 0 .433-.033.85-.1 1.25l2.317 2-2.015 3.4-2.922-.9c-.37.267-.73.492-1.082.676a14.72 14.72 0 0 1-1.135.524l-.604 3h-4.03Zm2.015-6c1.108 0 2.057-.391 2.847-1.174.789-.784 1.183-1.726 1.183-2.826s-.394-2.042-1.183-2.826c-.79-.783-1.739-1.174-2.847-1.174-1.109 0-2.058.391-2.848 1.174-.788.784-1.183 1.726-1.183 2.826s.395 2.042 1.183 2.826c.79.783 1.74 1.174 2.848 1.174Z" fill="#2F327D"/></svg>