<svg width="40" height="40" fill="none" xmlns="http://www.w3.org/2000/svg"><path d="M23.848 40h-7.696c-.513 0-.958-.167-1.334-.5a1.977 1.977 0 0 1-.667-1.25l-.616-4.65a7.926 7.926 0 0 1-1.258-.6 16.407 16.407 0 0 1-1.153-.75l-4.464 1.8a2.353 2.353 0 0 1-1.436.05 1.9 1.9 0 0 1-1.129-.85L.3 26.8c-.274-.433-.36-.9-.257-1.4.103-.5.36-.9.77-1.2l3.848-2.85a4.662 4.662 0 0 1-.052-.676v-1.348c0-.217.017-.443.052-.676L.812 15.8c-.41-.3-.667-.7-.77-1.2-.103-.5-.017-.967.257-1.4l3.796-6.45c.24-.467.607-.759 1.102-.876a2.558 2.558 0 0 1 1.463.076l4.464 1.8c.376-.267.77-.517 1.18-.75.41-.233.821-.433 1.231-.6l.616-4.65c.069-.5.29-.917.667-1.25.376-.333.821-.5 1.334-.5h7.696c.513 0 .958.167 1.334.5.376.333.599.75.667 1.25l.616 4.65a7.92 7.92 0 0 1 1.258.6c.394.233.778.483 1.153.75l4.464-1.8a2.353 2.353 0 0 1 1.436-.05c.479.133.855.417 1.129.85l3.797 6.45c.273.433.359.9.256 1.4-.103.5-.36.9-.77 1.2l-3.848 2.85c.035.233.052.459.052.676v1.348a2.4 2.4 0 0 1-.103.676l3.848 2.85c.41.3.667.7.77 1.2.102.5.017.967-.257 1.4l-3.797 6.4a2.014 2.014 0 0 1-1.155.876c-.496.15-.984.142-1.461-.026l-4.361-1.8c-.376.267-.77.517-1.18.75-.41.233-.821.433-1.231.6l-.616 4.65c-.069.5-.29.917-.667 1.25-.376.333-.821.5-1.334.5Zm-3.745-13c1.983 0 3.676-.683 5.079-2.05 1.402-1.367 2.103-3.017 2.103-4.95 0-1.933-.7-3.583-2.103-4.95-1.402-1.367-3.096-2.05-5.08-2.05-2.017 0-3.72.683-5.105 2.05-1.386 1.367-2.079 3.017-2.077 4.95 0 1.933.692 3.583 2.077 4.95C16.38 26.317 18.083 27 20.103 27Zm0-4c-.856 0-1.583-.292-2.182-.876A2.848 2.848 0 0 1 17.024 20c0-.833.3-1.542.9-2.126.598-.584 1.325-.875 2.179-.874.855 0 1.582.292 2.181.876.6.584.898 1.292.897 2.124 0 .833-.3 1.542-.899 2.126-.6.584-1.326.875-2.18.874Zm-2.155 13H22l.718-5.3a11.672 11.672 0 0 0 2.951-1.176 12.233 12.233 0 0 0 2.488-1.874l5.079 2.05 2-3.4-4.411-3.25a6.91 6.91 0 0 0 .359-1.474A11.98 11.98 0 0 0 31.287 20c0-.533-.034-1.058-.102-1.574a6.947 6.947 0 0 0-.36-1.476l4.413-3.25-2.001-3.4-5.08 2.1a11.336 11.336 0 0 0-2.487-1.924A11.727 11.727 0 0 0 22.72 9.3L22.051 4H18l-.718 5.3c-1.06.267-2.044.659-2.95 1.176a12.363 12.363 0 0 0-2.489 1.874l-5.08-2.05-2 3.4 4.411 3.2c-.17.5-.29 1-.359 1.5-.068.5-.102 1.033-.102 1.6 0 .533.034 1.05.102 1.55.069.5.188 1 .36 1.5L4.761 26.3l2.001 3.4 5.08-2.1a11.369 11.369 0 0 0 2.489 1.926c.907.517 1.89.909 2.949 1.174l.667 5.3Z" fill="#2F327D"/></svg>