<svg width="40" height="37" fill="none" xmlns="http://www.w3.org/2000/svg"><path d="M14.55 32.5h10.9l-1-4h-8.9l-1 4Zm-.55-8h12c2.767 0 5.125-.975 7.076-2.926C35.026 19.624 36 17.267 36 14.5c0-2.767-.975-5.125-2.924-7.074C31.126 5.476 28.766 4.5 26 4.5H14c-2.767 0-5.125.975-7.074 2.926C4.976 9.376 4 11.733 4 14.5c0 2.767.975 5.125 2.926 7.074C8.876 23.524 11.233 24.5 14 24.5Zm6-6c-1.1 0-2.041-.392-2.824-1.176C16.392 16.541 16 15.6 16 14.5c0-1.1.392-2.042 1.176-2.826C17.959 10.891 18.9 10.5 20 10.5c1.1 0 2.042.391 2.826 1.174C23.609 12.458 24 13.4 24 14.5s-.391 2.041-1.174 2.824C22.042 18.108 21.1 18.5 20 18.5Zm-11-6c.567 0 1.042-.192 1.426-.576.383-.383.574-.857.574-1.424s-.191-1.042-.574-1.426C10.042 8.691 9.566 8.5 9 8.5c-.567 0-1.042.191-1.426.574C7.191 9.458 7 9.934 7 10.5c0 .567.191 1.041.574 1.424.384.384.86.576 1.426.576Zm-5 24v-4h6.45l1.05-4.2c-3.3-.567-6.041-2.141-8.224-4.724C1.092 20.992 0 17.966 0 14.5c0-3.9 1.358-7.209 4.074-9.926C6.791 1.858 10.1.5 14 .5h12c3.9 0 7.208 1.358 9.924 4.074C38.641 7.291 40 10.6 40 14.5c0 3.467-1.091 6.492-3.274 9.076-2.184 2.583-4.926 4.157-8.226 4.724l1.05 4.2H36v4H4Zm16-14c2.2 0 4.083-.783 5.65-2.35C27.217 18.583 28 16.7 28 14.5s-.783-4.083-2.35-5.65C24.083 7.283 22.2 6.5 20 6.5s-4.083.783-5.65 2.35C12.783 10.417 12 12.3 12 14.5s.783 4.083 2.35 5.65c1.567 1.567 3.45 2.35 5.65 2.35Z" fill="#2F327D"/></svg>