<svg width="36" height="30" fill="none" xmlns="http://www.w3.org/2000/svg"><path d="M32.301 7.482c1.464-1.067 2.695-2.397 3.699-3.93v-.001a15.113 15.113 0 0 1-4.253 1.195A7.498 7.498 0 0 0 34.995.563a14.545 14.545 0 0 1-4.68 1.832A7.308 7.308 0 0 0 24.924 0c-4.086 0-7.375 3.402-7.375 7.57 0 .6.049 1.178.17 1.727-6.135-.308-11.565-3.323-15.213-7.919a7.784 7.784 0 0 0-1.01 3.827c0 2.621 1.315 4.944 3.279 6.29-1.187-.023-2.35-.377-3.335-.932v.083c0 3.679 2.558 6.734 5.913 7.439a7.17 7.17 0 0 1-1.935.249c-.473 0-.95-.028-1.397-.13.956 2.997 3.671 5.202 6.896 5.274a14.602 14.602 0 0 1-9.152 3.228c-.604 0-1.184-.027-1.765-.103A20.409 20.409 0 0 0 11.322 30c13.024 0 21.513-11.145 20.979-22.518Z" fill="#fff"/></svg>