<svg width="50" height="30" fill="none" xmlns="http://www.w3.org/2000/svg"><path d="M41.491 17.203c-.808-1.05-.577-1.517 0-2.456.01-.01 6.684-9.495 7.371-12.711l.004-.002C49.208.86 48.866 0 47.214 0h-5.467c-1.391 0-2.033.74-2.377 1.566 0 0-2.783 6.853-6.721 11.295-1.27 1.284-1.858 1.695-2.552 1.695-.342 0-.873-.411-.873-1.583V2.033C29.224.629 28.834 0 27.682 0h-8.596c-.873 0-1.392.656-1.392 1.266 0 1.333 1.97 1.64 2.173 5.39v8.136c0 1.783-.314 2.11-1.012 2.11-1.859 0-6.37-6.88-9.042-14.755C9.273.62 8.746.002 7.344.002H1.875C.315.002 0 .742 0 1.57c0 1.461 1.858 8.727 8.642 18.327C13.163 26.45 19.53 30 25.322 30c3.481 0 3.906-.789 3.906-2.145 0-6.261-.315-6.853 1.43-6.853.808 0 2.2.412 5.45 3.572C39.822 28.322 40.433 30 42.511 30h5.467c1.558 0 2.348-.789 1.894-2.344-1.04-3.272-8.065-10.003-8.382-10.453Z" fill="#fff"/></svg>