<svg width="46" height="30" fill="none" xmlns="http://www.w3.org/2000/svg"><path d="M18.4 21.429 30.337 15 18.4 8.571V21.43ZM44.988 4.65c.299 1.007.506 2.357.644 4.071.161 1.715.23 3.193.23 4.479L46 15c0 4.693-.368 8.143-1.012 10.35-.575 1.929-1.909 3.171-3.979 3.707-1.081.279-3.059.472-6.095.6-2.99.15-5.727.214-8.257.214L23 30c-9.637 0-15.64-.343-18.009-.943-2.07-.536-3.404-1.778-3.979-3.707-.299-1.007-.506-2.357-.644-4.071a48.064 48.064 0 0 1-.23-4.479L0 15c0-4.693.368-8.143 1.012-10.35.575-1.929 1.909-3.171 3.979-3.707C6.072.664 8.05.47 11.086.343c2.99-.15 5.727-.214 8.257-.214L23 0c9.637 0 15.64.343 18.009.943 2.07.536 3.404 1.778 3.979 3.707Z" fill="#49BBBD"/></svg>