<svg width="130" height="110" viewBox="0 0 130 110" fill="none" xmlns="http://www.w3.org/2000/svg">
<g clip-path="url(#clip0_185_960)">
<mask id="mask0_185_960" style="mask-type:luminance" maskUnits="userSpaceOnUse" x="0" y="0" width="130" height="110">
<path d="M130 0H0V110H130V0Z" fill="white"/>
</mask>
<g mask="url(#mask0_185_960)">
<path d="M13.8065 101.749L6.07324 53.7375L124.395 1.45483L13.8065 101.749Z" fill="#0066FF" fill-opacity="0.65"/>
<path fill-rule="evenodd" clip-rule="evenodd" d="M92.4031 79.4828C92.1368 79.5559 91.8617 79.3994 91.7885 79.1331L88.9125 68.6642C88.8394 68.3979 88.9959 68.1227 89.2622 68.0496C89.5285 67.9764 89.8036 68.133 89.8768 68.3992L92.7528 78.8682C92.826 79.1345 92.6694 79.4096 92.4031 79.4828Z" fill="#262626"/>
<path fill-rule="evenodd" clip-rule="evenodd" d="M112.571 53.6166C112.519 53.8877 112.256 54.0648 111.985 54.0123L101.327 51.9457C101.056 51.8931 100.879 51.6308 100.931 51.3597C100.984 51.0886 101.246 50.9114 101.517 50.964L112.176 53.0306C112.447 53.0831 112.624 53.3455 112.571 53.6166Z" fill="#262626"/>
<path fill-rule="evenodd" clip-rule="evenodd" d="M107.121 68.7086C106.96 68.9329 106.648 68.984 106.423 68.8229L97.6062 62.4881C97.382 62.327 97.3308 62.0146 97.4919 61.7903C97.653 61.5661 97.9655 61.5149 98.1897 61.676L107.007 68.0108C107.231 68.1719 107.282 68.4843 107.121 68.7086Z" fill="#262626"/>
<path fill-rule="evenodd" clip-rule="evenodd" d="M14.9858 43.3592C16.8183 44.4614 19.5456 47.2204 23.3214 52.2079C23.4881 52.4281 23.8017 52.4714 24.0219 52.3047C24.2421 52.1381 24.2854 51.8245 24.1187 51.6043C20.3418 46.6154 17.5148 43.7133 15.5012 42.5023C14.5042 41.9026 13.5841 41.6435 12.8127 41.9202C12.0156 42.2061 11.5959 42.9784 11.4026 43.8958C11.2066 44.8257 11.21 46.0382 11.3689 47.4483C11.5287 48.8657 11.8495 50.5143 12.3098 52.3309C13.2304 55.9644 14.7165 60.2987 16.6196 64.8486C20.4233 73.9425 25.9151 83.9505 31.9433 90.9812C34.9558 94.4947 38.1279 97.2951 41.318 98.8525C44.5219 100.417 47.7747 100.738 50.8725 99.2282C57.0182 96.2328 58.5857 89.6475 57.7097 82.0818C57.5934 81.0777 57.4339 80.0527 57.2356 79.0122C59.7436 80.4563 62.2432 81.3452 64.6202 81.4795C66.7939 81.6024 68.8611 81.0933 70.7142 79.8088C72.5615 78.5283 74.1649 76.4993 75.4589 73.6317C77.0459 70.1146 77.6045 66.287 77.4366 62.4107C79.8818 63.2738 82.2889 63.6097 84.4965 63.2923C88.0267 62.7849 90.9725 60.6162 92.6878 56.4577C93.7949 53.7736 94.0563 50.8747 93.7462 47.9648C96.3039 47.9363 98.5396 46.3034 100.139 43.1064C101.76 39.8683 102.772 34.9617 102.879 28.2395L105.216 30.5773C105.412 30.7726 105.728 30.7726 105.924 30.5773C106.119 30.3821 106.119 30.0655 105.924 29.8702L102.742 26.6882C102.546 26.493 102.23 26.493 102.034 26.6882L98.8524 29.8702C98.6571 30.0655 98.6571 30.3821 98.8524 30.5773C99.0476 30.7726 99.3642 30.7726 99.5595 30.5773L101.878 28.2587C101.769 34.8885 100.768 39.6147 99.245 42.6589C97.7291 45.6886 95.741 46.987 93.6176 46.9646C93.4285 45.7064 93.1384 44.4506 92.7696 43.2136C91.449 38.7848 89.1053 34.5488 86.6821 31.2143C85.4696 29.5459 84.2322 28.0962 83.0853 26.9558C81.9452 25.8223 80.8705 24.9703 79.9811 24.5246C79.5403 24.3036 79.0984 24.1585 78.692 24.1653C78.2527 24.1727 77.8581 24.3616 77.6171 24.7676C77.3994 25.1341 77.3453 25.6153 77.3855 26.1484C77.4266 26.6929 77.5716 27.3581 77.8222 28.1468C79.7344 34.1659 82.2139 38.9797 84.8747 42.3532C87.3885 45.5403 90.1177 47.5064 92.7324 47.8943C93.0583 50.7337 92.816 53.5245 91.7633 56.0764C90.1718 59.9348 87.5067 61.8494 84.3542 62.3025C82.2228 62.6089 79.836 62.2512 77.3706 61.3224C77.207 59.2129 76.8372 57.0963 76.3097 55.0145C74.7196 48.7393 71.6849 42.7335 68.4604 38.0987C66.8476 35.7804 65.181 33.7961 63.6146 32.2879C62.059 30.7901 60.5637 29.7242 59.2898 29.2991C58.6488 29.0853 58.0191 29.0187 57.4532 29.1883C56.8699 29.363 56.4211 29.7688 56.1252 30.3632C55.5591 31.5002 55.5249 33.376 56.0323 36.0065C58.0825 46.635 65.4488 55.8497 73.1562 60.3905C74.2364 61.0269 75.3276 61.574 76.4157 62.0208C76.6402 65.9202 76.1164 69.7432 74.5474 73.2204C73.3063 75.9708 71.8047 77.8362 70.1445 78.9869C68.4902 80.1336 66.6475 80.5926 64.6766 80.4811C62.2546 80.3442 59.6338 79.3443 56.9633 77.6837C55.5506 71.2305 52.7462 64.2738 49.5476 58.0112C45.6069 50.2957 41.0358 43.5712 37.6567 40.0882C36.8112 39.2167 36.0239 38.5308 35.3257 38.0834C34.6538 37.6527 33.9554 37.3715 33.3329 37.5089C32.6293 37.6643 32.2672 38.278 32.1315 39.0354C31.9957 39.7931 32.0489 40.84 32.2838 42.1788C34.1587 52.8654 42.2472 66.412 51.1407 74.4759C52.759 75.9432 54.4144 77.2387 56.0738 78.3044C56.3527 79.6305 56.5698 80.9316 56.7163 82.1968C57.5769 89.6289 55.9911 95.621 50.4344 98.3293C47.6811 99.6713 44.7597 99.4199 41.7567 97.9539C38.7399 96.4811 35.6723 93.794 32.7024 90.3303C26.766 83.4066 21.3226 73.5011 17.5421 64.4627C15.6531 59.9465 14.1849 55.6599 13.2791 52.0853C12.8262 50.2978 12.5158 48.6956 12.3626 47.3363C12.2086 45.9697 12.2172 44.8797 12.3811 44.102C12.5476 43.312 12.8422 42.972 13.1503 42.8615C13.4839 42.7418 14.0598 42.8023 14.9858 43.3592ZM55.7556 76.8904C54.4419 75.9819 53.1217 74.9222 51.8124 73.7351C43.0538 65.7935 35.0988 52.4372 33.2688 42.006C33.0405 40.7051 33.0111 39.796 33.1158 39.2118C33.2206 38.6273 33.4223 38.5133 33.5485 38.4854C33.7558 38.4396 34.1533 38.5197 34.7861 38.9253C35.3928 39.3141 36.1192 39.9395 36.939 40.7846C40.2216 44.1681 44.7396 50.7961 48.657 58.466C51.6693 64.3639 54.3073 70.8409 55.7556 76.8904ZM76.331 60.8989C75.4461 60.5117 74.5543 60.0536 73.6638 59.5289C66.1839 55.1221 59.0059 46.1422 57.0142 35.8171C56.5112 33.2092 56.6135 31.6262 57.0204 30.8089C57.2109 30.4262 57.4577 30.2308 57.7402 30.1462C58.0402 30.0563 58.4466 30.072 58.9733 30.2477C60.0346 30.6018 61.4003 31.5441 62.921 33.0083C64.431 34.4621 66.056 36.3937 67.6395 38.6698C70.8077 43.2237 73.7846 49.1207 75.3404 55.2602C75.8146 57.1315 76.1557 59.021 76.331 60.8989ZM92.5884 46.8543C90.4173 46.42 88.0056 44.7079 85.6599 41.7339C83.0918 38.478 80.6611 33.7802 78.7752 27.844C78.5376 27.096 78.4158 26.5121 78.3827 26.0731C78.3487 25.6227 78.4128 25.386 78.4769 25.2781C78.5176 25.2096 78.5683 25.1675 78.7087 25.1652C78.882 25.1623 79.1542 25.2287 79.5331 25.4186C80.283 25.7944 81.2694 26.5606 82.3802 27.665C83.4841 28.7626 84.6874 30.1705 85.8732 31.8022C88.2466 35.0682 90.5303 39.2032 91.8113 43.4994C92.1436 44.6139 92.4075 45.736 92.5884 46.8543Z" fill="#262626"/>
</g>
</g>
<defs>
<clipPath id="clip0_185_960">
<rect width="130" height="110" fill="white"/>
</clipPath>
</defs>
</svg>
