<svg width="130" height="110" viewBox="0 0 130 110" fill="none" xmlns="http://www.w3.org/2000/svg">
<g clip-path="url(#clip0_185_970)">
<mask id="mask0_185_970" style="mask-type:luminance" maskUnits="userSpaceOnUse" x="0" y="0" width="130" height="110">
<path d="M130 0H0V110H130V0Z" fill="white"/>
</mask>
<g mask="url(#mask0_185_970)">
<path d="M125.727 30.2301L117.015 5.44263L95.2493 34.3585L88.4054 23.5383L60.4912 64.7597L86.6127 48.2375L93.4566 59.0577L125.727 30.2301Z" fill="#4BD0A0" fill-opacity="0.75"/>
<path fill-rule="evenodd" clip-rule="evenodd" d="M119.1 44.8718L116.813 63.194L91.464 70.0023L90.8354 60.9645L72.2266 62.2588L98.719 46.2893L99.3476 55.3272L119.1 44.8718ZM97.8348 47.9899L98.4566 56.9302L117.87 46.6545L115.904 62.4027L92.3774 68.7216L91.7636 59.8975L76.2962 60.9733L97.8348 47.9899Z" fill="#262626"/>
<path fill-rule="evenodd" clip-rule="evenodd" d="M83.0676 12.2019L89.4507 21.625L80.4654 35.0793L76.5024 31.1448L68.4014 39.3047L74.1952 21.139L78.1583 25.0734L83.0676 12.2019ZM74.6511 23.0006L78.5447 26.8662L83.3173 14.3535L88.2456 21.629L80.3082 33.5141L76.4972 29.7306L70.6148 35.6559L74.6511 23.0006Z" fill="#262626"/>
<path fill-rule="evenodd" clip-rule="evenodd" d="M30.1626 97.2869C30.0456 97.537 30.1536 97.8346 30.4037 97.9516C42.0112 103.38 53.8091 97.0257 61.3535 88.9063L61.3627 88.8963C68.847 80.3893 69.67 73.9992 67.7064 70.4698C66.725 68.706 65.0641 67.7152 63.318 67.618C61.5695 67.5207 59.7782 68.3212 58.5389 70.0457C56.2526 73.2269 53.7666 76.3273 51.2501 78.3017C48.728 80.2805 46.3189 81.0259 44.072 79.8322C43.5394 79.5493 42.9703 79.0034 42.4173 78.2177C41.8683 77.4377 41.3552 76.4499 40.9236 75.3229C40.0596 73.0672 39.5388 70.2984 39.6849 67.6112C39.831 64.9234 40.6411 62.3575 42.3938 60.4508C44.1375 58.554 46.8696 57.2492 50.9873 57.1784C55.6906 57.0976 58.9851 56.1328 61.0792 54.629C63.196 53.1089 64.0585 51.0542 63.8945 48.9266C63.5726 44.7498 59.3401 40.4903 53.64 39.3378C49.0392 37.769 42.8886 38.0673 37.5671 41.0688C32.2125 44.0891 27.7294 49.8272 26.4787 59.0679C26.4417 59.3416 26.6335 59.5934 26.9071 59.6305C27.1808 59.6675 27.4326 59.4757 27.4697 59.202C28.6815 50.2487 32.996 44.7952 38.0583 41.9398C43.1416 39.0727 49.0111 38.8057 53.3468 40.2944C53.3679 40.3016 53.3894 40.3074 53.4112 40.3118C58.8324 41.3955 62.6194 45.3963 62.8974 49.0035C63.0337 50.7719 62.3378 52.494 60.4959 53.8167C58.6315 55.1556 55.5672 56.0996 50.9701 56.1785C46.6367 56.253 43.6226 57.6365 41.6576 59.774C39.7018 61.9016 38.8408 64.7159 38.6864 67.5569C38.5319 70.3986 39.0808 73.3074 39.9898 75.6806C40.4446 76.8682 40.9939 77.9327 41.5996 78.7933C42.2013 79.6482 42.8792 80.3309 43.6028 80.7153C46.3802 82.1909 49.2362 81.1528 51.8674 79.0885C54.5041 77.0198 57.0597 73.8174 59.3509 70.6293C60.4003 69.1691 61.8709 68.5391 63.2624 68.6165C64.6561 68.6941 66.0131 69.4833 66.8325 70.956C68.4699 73.8991 68.026 79.8062 60.6163 88.2305C53.1782 96.233 41.8353 102.194 30.8273 97.0457C30.5772 96.9288 30.2796 97.0367 30.1626 97.2869Z" fill="#262626"/>
<path fill-rule="evenodd" clip-rule="evenodd" d="M21.0169 51.8457C21.2967 51.8721 21.5515 51.6754 21.586 51.4064C22.5222 44.0994 24.8436 37.6985 28.7232 32.9683C32.5913 28.2521 38.0306 25.1678 45.2859 24.5069C46.9268 24.3574 48.9281 24.6214 50.825 25.2589C52.723 25.8968 54.4705 26.8932 55.6349 28.17C56.7893 29.4356 57.3633 30.9635 56.9801 32.7261C56.5919 34.5114 55.2035 36.6232 52.2294 38.9957C52.01 39.1707 51.9758 39.4795 52.1529 39.6854C52.33 39.8914 52.6514 39.9165 52.8708 39.7416C55.9398 37.2934 57.5239 34.9974 57.9793 32.9026C58.4398 30.7851 57.7286 28.9603 56.4107 27.5154C55.1028 26.0814 53.1909 25.009 51.1841 24.3345C49.1763 23.6597 47.0274 23.3675 45.2145 23.5327C37.6764 24.2194 31.9738 27.441 27.9266 32.3755C23.8909 37.296 21.5234 43.8909 20.5727 51.3111C20.5382 51.58 20.7371 51.8194 21.0169 51.8457Z" fill="#262626"/>
<path fill-rule="evenodd" clip-rule="evenodd" d="M7.47718 70.0106C7.58785 70.2558 7.88223 70.3505 8.13469 70.2223C9.4189 69.5702 10.1648 68.4794 10.5485 67.1176C10.9259 65.7784 10.9625 64.1512 10.837 62.3472C10.712 60.5507 10.4217 58.5282 10.1122 56.373L10.1052 56.3244C9.79224 54.1441 9.4594 51.8199 9.2483 49.4131C8.82582 44.5962 8.89611 39.4942 10.5697 34.6562C12.2373 29.8356 15.5085 25.2425 21.5561 21.4466C25.8717 18.7379 30.5386 18.4865 33.0799 19.8669C34.3302 20.5461 35.0411 21.5978 35.0251 22.9434C35.0087 24.3179 34.2336 26.1167 32.2328 28.2717C32.0385 28.4809 32.0396 28.7972 32.2352 28.9782C32.4308 29.1592 32.7468 29.1363 32.941 28.9271C35.0334 26.6735 36.0025 24.6269 36.0232 22.8865C36.0443 21.1173 35.0854 19.7849 33.6007 18.9784C30.6721 17.3875 25.6088 17.7584 21.0697 20.6075C14.8133 24.5344 11.3787 29.3286 9.62893 34.3869C7.88515 39.4278 7.82651 44.6962 8.25385 49.5685C8.46767 52.0063 8.80443 54.3563 9.11699 56.5333L9.12033 56.5566C9.43257 58.7314 9.71871 60.7244 9.84118 62.4849C9.96451 64.2577 9.91718 65.7437 9.58922 66.9075C9.26762 68.0487 8.68667 68.8508 7.73391 69.3347C7.48145 69.4629 7.36651 69.7655 7.47718 70.0106Z" fill="#262626"/>
</g>
</g>
<defs>
<clipPath id="clip0_185_970">
<rect width="130" height="110" fill="white"/>
</clipPath>
</defs>
</svg>
