<svg width="150" height="86" viewBox="0 0 150 86" fill="none" xmlns="http://www.w3.org/2000/svg">
<g clip-path="url(#clip0_185_941)">
<mask id="mask0_185_941" style="mask-type:luminance" maskUnits="userSpaceOnUse" x="0" y="0" width="150" height="86">
<path d="M150 0H0V86H150V0Z" fill="white"/>
</mask>
<g mask="url(#mask0_185_941)">
<path d="M5.56612 68.2568C5.0189 65.5538 6.33766 62.8169 8.79274 61.5604L98.408 15.6982C92.4951 33.0534 92.8634 43.4716 100.372 61.0715L12.4308 73.1306C9.2151 73.5715 6.21014 71.4381 5.56612 68.2568Z" fill="#EB2377" fill-opacity="0.7"/>
<path fill-rule="evenodd" clip-rule="evenodd" d="M102.399 26.7578C102.507 27.0082 102.393 27.3133 102.143 27.4394L48.6659 54.4657C48.4165 54.5917 48.1265 54.4909 48.0181 54.2406C47.9096 53.9902 48.0239 53.6851 48.2733 53.5591L101.751 26.5327C102 26.4067 102.29 26.5075 102.399 26.7578ZM46.6189 56.0795C46.73 56.3285 46.6188 56.6347 46.3706 56.7634L18.5604 71.1834C16.9108 72.0388 16.0383 73.9666 16.4988 75.7385C16.9611 77.5175 18.63 78.613 20.4355 78.3227L49.5707 73.6371C49.8412 73.5936 50.0825 73.7827 50.1096 74.0596C50.1366 74.3365 49.9392 74.5963 49.6686 74.6398L20.5335 79.3254C18.2464 79.6932 16.1322 78.3055 15.5466 76.0519C14.9633 73.8073 16.0686 71.3652 18.1582 70.2817L45.9683 55.8616C46.2165 55.7329 46.5078 55.8305 46.6189 56.0795ZM52.0048 75.3661C51.9783 75.0891 52.1763 74.8298 52.447 74.7869L110.525 65.5865C110.795 65.5437 111.036 65.7335 111.063 66.0105C111.089 66.2875 110.891 66.5468 110.62 66.5896L52.5426 75.7901C52.272 75.8329 52.0312 75.6431 52.0048 75.3661Z" fill="black"/>
<path fill-rule="evenodd" clip-rule="evenodd" d="M131.229 55.2926C132.412 50.8468 132.487 45.1099 131.114 39.1598C129.741 33.2098 127.203 28.2696 124.259 25.0826C121.288 21.8665 118.083 20.6007 115.304 21.4485C112.524 22.2963 110.286 25.2224 109.092 29.7087C107.909 34.1545 107.835 39.8914 109.208 45.8415C110.581 51.7915 113.118 56.7317 116.062 59.9187C119.033 63.1348 122.239 64.4006 125.018 63.5528C127.797 62.705 130.036 59.7789 131.229 55.2926ZM125.243 64.5272C131.82 62.521 134.877 51.033 132.07 38.8681C129.264 26.7032 121.656 18.4679 115.079 20.4741C108.501 22.4803 105.445 33.9683 108.251 46.1332C111.058 58.2981 118.665 66.5334 125.243 64.5272Z" fill="black"/>
<path fill-rule="evenodd" clip-rule="evenodd" d="M129.433 52.0515C130.19 48.6448 130.148 44.1975 129.074 39.5418C128 34.8862 126.119 30.9998 123.992 28.4729C121.822 25.8942 119.623 24.9671 117.865 25.5033C116.107 26.0395 114.597 28.0979 113.824 31.5746C113.066 34.9813 113.108 39.4285 114.182 44.0842C115.256 48.7399 117.137 52.6263 119.264 55.1531C121.434 57.7319 123.633 58.659 125.391 58.1227C127.149 57.5865 128.659 55.5282 129.433 52.0515ZM125.616 59.0971C130.257 57.6817 132.233 48.7959 130.031 39.2501C127.828 29.7043 122.281 23.1134 117.64 24.5289C113 25.9444 111.023 34.8302 113.225 44.376C115.428 53.9217 120.975 60.5126 125.616 59.0971Z" fill="black"/>
<path fill-rule="evenodd" clip-rule="evenodd" d="M99.9928 32.5904C98.7636 37.0412 98.6661 42.7367 100.021 48.6101C101.376 54.4835 103.916 59.3746 106.903 62.5396C109.901 65.7171 113.265 67.0792 116.304 66.152C116.568 66.0714 116.833 66.2243 116.895 66.4933C116.957 66.7624 116.793 67.0458 116.529 67.1264C112.992 68.2054 109.289 66.5673 106.18 63.2724C103.059 59.9649 100.451 54.9113 99.0647 48.9019C97.6782 42.8924 97.7647 37.017 99.0492 32.3659C100.329 27.7324 102.838 24.1995 106.376 23.1205C106.64 23.0399 106.905 23.1927 106.967 23.4618C107.029 23.7309 106.865 24.0143 106.601 24.0949C103.561 25.0221 101.227 28.122 99.9928 32.5904Z" fill="black"/>
<path d="M119.938 30.462L120.437 31.2828C120.741 31.7814 121.247 32.1225 121.823 32.2167L122.772 32.3717L121.951 32.8713C121.452 33.1748 121.111 33.681 121.017 34.257L120.862 35.2053L120.362 34.3845C120.059 33.8859 119.553 33.5448 118.976 33.4506L118.028 33.2956L118.849 32.796C119.348 32.4925 119.689 31.9863 119.783 31.4103L119.938 30.462Z" fill="white"/>
<path fill-rule="evenodd" clip-rule="evenodd" d="M119.842 29.9713C120.048 29.9313 120.256 30.0234 120.365 30.2021L120.865 31.0229C121.092 31.3968 121.472 31.6527 121.904 31.7233L122.852 31.8783C123.059 31.912 123.222 32.0708 123.262 32.2761C123.302 32.4815 123.21 32.6901 123.031 32.7988L122.211 33.2985C121.837 33.5261 121.581 33.9057 121.51 34.3378L121.355 35.2861C121.322 35.4925 121.163 35.6562 120.957 35.6962C120.752 35.7362 120.544 35.6441 120.435 35.4654L119.935 34.6446C119.707 34.2706 119.328 34.0148 118.896 33.9442L117.947 33.7892C117.741 33.7554 117.577 33.5967 117.537 33.3913C117.497 33.1859 117.589 32.9774 117.768 32.8686L118.589 32.369C118.963 32.1414 119.219 31.7617 119.289 31.3297L119.444 30.3814C119.478 30.1749 119.637 30.0113 119.842 29.9713ZM120.201 31.8141C120.056 32.2931 119.77 32.7177 119.38 33.0323C119.859 33.1778 120.284 33.464 120.598 33.8534C120.744 33.3744 121.03 32.9497 121.42 32.6351C120.94 32.4897 120.516 32.2035 120.201 31.8141Z" fill="black"/>
<path fill-rule="evenodd" clip-rule="evenodd" d="M115.079 21.0982C115.154 21.3637 115.001 21.6405 114.735 21.7163L106.685 24.0165C106.419 24.0924 106.142 23.9387 106.067 23.6731C105.991 23.4076 106.144 23.1309 106.41 23.055L114.46 20.7548C114.726 20.679 115.003 20.8327 115.079 21.0982Z" fill="black"/>
<path fill-rule="evenodd" clip-rule="evenodd" d="M118.606 1.5016C118.881 1.52353 119.087 1.76447 119.065 2.03974L118.061 14.6331C118.039 14.9084 117.798 15.1137 117.523 15.0918C117.248 15.0699 117.042 14.8289 117.064 14.5537L118.068 1.96031C118.09 1.68504 118.331 1.47967 118.606 1.5016Z" fill="black"/>
<path fill-rule="evenodd" clip-rule="evenodd" d="M139.306 6.46365C139.517 6.64257 139.542 6.95813 139.363 7.16846L130.076 18.0856C129.898 18.2959 129.582 18.3213 129.372 18.1424C129.161 17.9635 129.136 17.6479 129.315 17.4376L138.602 6.52052C138.781 6.31018 139.096 6.28472 139.306 6.46365Z" fill="black"/>
<path fill-rule="evenodd" clip-rule="evenodd" d="M148.06 23.9193C148.104 24.1918 147.919 24.4489 147.647 24.4935L136.753 26.2751C136.481 26.3196 136.223 26.1348 136.179 25.8623C136.134 25.5898 136.319 25.3328 136.592 25.2882L147.485 23.5066C147.758 23.462 148.015 23.6468 148.06 23.9193Z" fill="black"/>
<path fill-rule="evenodd" clip-rule="evenodd" d="M124.922 64.2256C124.998 64.4911 124.844 64.7679 124.578 64.8437L116.528 67.1439C116.262 67.2198 115.986 67.066 115.91 66.8005C115.834 66.535 115.988 66.2583 116.253 66.1824L124.304 63.8822C124.569 63.8063 124.846 63.9601 124.922 64.2256Z" fill="black"/>
<path fill-rule="evenodd" clip-rule="evenodd" d="M52.9608 51.7654C53.1027 51.9956 53.0303 52.3126 52.799 52.4736C51.5628 53.3342 50.6149 54.9941 50.1396 57.1821C49.6669 59.3584 49.6786 61.9924 50.3028 64.6979C50.9377 67.4496 52.0909 69.7756 53.4701 71.4003C54.857 73.0342 56.4256 73.909 57.8876 73.8935C58.1586 73.8907 58.3673 74.116 58.3538 74.3969C58.3403 74.6777 58.1096 74.9077 57.8387 74.9106C55.9975 74.93 54.1968 73.8426 52.7152 72.0972C51.2258 70.3425 50.0114 67.8719 49.3464 64.9896C48.6924 62.1554 48.6716 59.3644 49.1816 57.0164C49.689 54.6802 50.7388 52.7166 52.2851 51.6402C52.5164 51.4792 52.8189 51.5352 52.9608 51.7654Z" fill="black"/>
<path fill-rule="evenodd" clip-rule="evenodd" d="M48.6112 53.9182C48.7357 54.1595 48.6413 54.4717 48.4002 54.6153C47.1881 55.3377 46.2423 56.8741 45.7588 58.9689C45.2785 61.05 45.2756 63.6065 45.8829 66.2384C46.4323 68.6199 47.4272 70.662 48.6218 72.1631C49.8222 73.6715 51.1935 74.5972 52.4822 74.8251C52.7466 74.8719 52.9113 75.1343 52.8502 75.4113C52.7891 75.6882 52.5252 75.8748 52.2609 75.8281C50.6792 75.5484 49.1316 74.4498 47.8484 72.8374C46.5594 71.2176 45.506 69.0423 44.9264 66.5302C44.289 63.7676 44.2823 61.0488 44.8038 58.7894C45.3221 56.5437 46.3836 54.6744 47.9492 53.7413C48.1903 53.5976 48.4867 53.6768 48.6112 53.9182Z" fill="black"/>
</g>
</g>
<defs>
<clipPath id="clip0_185_941">
<rect width="150" height="86" fill="white"/>
</clipPath>
</defs>
</svg>
