<svg width="36" height="30" viewBox="0 0 36 30" fill="none" xmlns="http://www.w3.org/2000/svg">
<path d="M32.301 7.48154C33.765 6.41538 34.9965 5.08462 36 3.55231V3.55077C34.6605 4.15231 33.2355 4.55231 31.7475 4.74615C33.2775 3.80923 34.446 2.33692 34.995 0.563077C33.5685 1.43538 31.9935 2.05077 30.315 2.39538C28.9605 0.915384 27.03 0 24.924 0C20.838 0 17.5485 3.40154 17.5485 7.57077C17.5485 8.17077 17.598 8.74769 17.7195 9.29692C11.5845 8.98923 6.1545 5.97385 2.5065 1.37846C1.8705 2.51231 1.4955 3.80923 1.4955 5.20462C1.4955 7.82615 2.811 10.1492 4.7745 11.4954C3.588 11.4723 2.4255 11.1185 1.44 10.5631V10.6462C1.44 14.3246 3.9975 17.38 7.353 18.0846C6.7515 18.2538 6.0975 18.3338 5.418 18.3338C4.9455 18.3338 4.4685 18.3062 4.0215 18.2046C4.977 21.2015 7.692 23.4062 10.917 23.4785C8.406 25.4923 5.217 26.7062 1.7655 26.7062C1.161 26.7062 0.5805 26.6785 0 26.6031C3.27 28.7646 7.143 30 11.322 30C24.3465 30 32.835 18.8554 32.301 7.48154Z" fill="white"/>
</svg>
