<svg width="50" height="30" viewBox="0 0 50 30" fill="none" xmlns="http://www.w3.org/2000/svg">
<path d="M41.491 17.2029C40.6827 16.1529 40.9139 15.6857 41.491 14.7471C41.5014 14.7364 48.1746 5.25214 48.8621 2.03571L48.8663 2.03357C49.208 0.861428 48.8663 0 47.2141 0H41.7473C40.3556 0 39.7139 0.739286 39.3701 1.56643C39.3701 1.56643 36.5867 8.41928 32.649 12.8614C31.3782 14.145 30.7906 14.5564 30.0969 14.5564C29.7552 14.5564 29.2239 14.145 29.2239 12.9729V2.03357C29.2239 0.627857 28.8343 0 27.6822 0H19.0861C18.2131 0 17.6944 0.655714 17.6944 1.26643C17.6944 2.59929 19.6632 2.90571 19.8674 6.65571V14.7921C19.8674 16.575 19.5528 16.9029 18.8548 16.9029C16.9964 16.9029 12.4858 10.0221 9.81284 2.14714C9.27324 0.619285 8.74614 0.0021427 7.344 0.0021427H1.87506C0.314594 0.0021427 0 0.741428 0 1.56857C0 3.03 1.8584 10.2964 8.64197 19.8964C13.163 26.4493 19.5298 30 25.3217 30C28.8031 30 29.2281 29.2114 29.2281 27.855C29.2281 21.5936 28.9135 21.0021 30.6573 21.0021C31.4657 21.0021 32.8574 21.4136 36.1075 24.5743C39.8222 28.3221 40.4327 30 42.5119 30H47.9787C49.5371 30 50.3267 29.2114 49.8726 27.6557C48.8329 24.3836 41.8077 17.6529 41.491 17.2029Z" fill="white"/>
</svg>
