<svg width="114" height="82" fill="none" xmlns="http://www.w3.org/2000/svg"><path d="M37.986 4.877a5 5 0 0 1 7.028 0l32.963 32.566a5 5 0 0 1 0 7.114L45.014 77.123a5 5 0 0 1-7.028 0L5.023 44.557a5 5 0 0 1 0-7.114L37.986 4.877Z" stroke="#00FFF0" stroke-width="2"/><path d="M40.144 29.331v4.384h-5.952v18.08H28.72v-18.08h-5.952v-4.384h17.376Zm14.65 22.688c-2.112 0-4.053-.49-5.824-1.472a11.19 11.19 0 0 1-4.192-4.096c-1.024-1.77-1.536-3.755-1.536-5.952s.512-4.17 1.536-5.92a11.198 11.198 0 0 1 4.192-4.096c1.77-.981 3.712-1.472 5.824-1.472 2.112 0 4.043.49 5.792 1.472a10.664 10.664 0 0 1 4.16 4.096c1.024 1.75 1.536 3.723 1.536 5.92s-.512 4.181-1.536 5.952a10.956 10.956 0 0 1-4.16 4.096c-1.75.982-3.68 1.472-5.792 1.472Zm0-4.992c1.792 0 3.222-.597 4.288-1.792 1.088-1.194 1.632-2.773 1.632-4.736 0-1.984-.544-3.563-1.632-4.736-1.066-1.194-2.496-1.792-4.288-1.792-1.813 0-3.264.587-4.352 1.76-1.066 1.173-1.6 2.763-1.6 4.768 0 1.984.534 3.573 1.6 4.768 1.088 1.173 2.539 1.76 4.352 1.76Zm31.972-17.696v4.384h-5.952v18.08h-5.471v-18.08H69.39v-4.384h17.376Zm3.099 11.2c0-2.218.48-4.192 1.44-5.92.96-1.75 2.293-3.104 4-4.064 1.728-.981 3.68-1.472 5.856-1.472 2.666 0 4.949.704 6.848 2.112 1.898 1.408 3.168 3.328 3.808 5.76h-6.016c-.448-.939-1.088-1.653-1.92-2.144-.811-.49-1.739-.736-2.784-.736-1.686 0-3.05.587-4.096 1.76-1.046 1.174-1.568 2.742-1.568 4.704 0 1.963.522 3.53 1.568 4.704 1.045 1.173 2.41 1.76 4.096 1.76 1.045 0 1.973-.245 2.784-.736.832-.49 1.472-1.205 1.92-2.144h6.016c-.64 2.432-1.91 4.352-3.808 5.76-1.899 1.387-4.182 2.08-6.848 2.08-2.176 0-4.128-.48-5.856-1.44a10.464 10.464 0 0 1-4-4.064c-.96-1.728-1.44-3.701-1.44-5.92Z" fill="#fff"/></svg>