<svg width="9" height="14" viewBox="0 0 9 14" fill="none" xmlns="http://www.w3.org/2000/svg">
<path d="M1.12061 0.413377C1.51113 0.0228523 2.14429 0.0228524 2.53482 0.413377L8.19307 6.07163C8.5836 6.46216 8.5836 7.09532 8.19307 7.48584L7.48597 8.19295C7.09544 8.58348 6.46228 8.58348 6.07175 8.19295L0.413499 2.5347C0.0229743 2.14417 0.0229745 1.51101 0.413499 1.12048L1.12061 0.413377Z" fill="#A5A5B5"/>
<path d="M8.19307 6.07163C8.5836 6.46216 8.5836 7.09532 8.19307 7.48584L2.53629 13.1427C2.14577 13.5332 1.5126 13.5332 1.12208 13.1427L0.414971 12.4356C0.0244466 12.045 0.0244467 11.4119 0.414971 11.0214L6.07183 5.3645C6.46235 4.97398 7.09551 4.97398 7.48604 5.3645L8.19307 6.07163Z" fill="#A5A5B5"/>
</svg>
