<svg width="18" height="18" viewBox="0 0 18 18" fill="none" xmlns="http://www.w3.org/2000/svg">
<path d="M0.692309 2.07692C0.309958 1.69457 0.309957 1.07466 0.692308 0.692308V0.692308C1.07466 0.309957 1.69457 0.309957 2.07692 0.692308L17.3077 15.9231C17.69 16.3054 17.69 16.9253 17.3077 17.3077V17.3077C16.9253 17.69 16.3054 17.69 15.9231 17.3077L0.692309 2.07692Z" fill="white"/>
<path d="M15.9231 0.692308C16.3054 0.309957 16.9253 0.309957 17.3077 0.692308V0.692308C17.69 1.07466 17.69 1.69457 17.3077 2.07692L2.07692 17.3077C1.69457 17.69 1.07466 17.69 0.692308 17.3077V17.3077C0.309957 16.9253 0.309957 16.3054 0.692308 15.9231L15.9231 0.692308Z" fill="white"/>
</svg>
