<svg width="24" height="24" viewBox="0 0 24 24" fill="none" xmlns="http://www.w3.org/2000/svg">
<path d="M0.923078 2.76923C0.413277 2.25943 0.413277 1.43288 0.923078 0.923077V0.923077C1.43288 0.413276 2.25943 0.413275 2.76923 0.923077L23.0769 21.2308C23.5867 21.7406 23.5867 22.5671 23.0769 23.0769V23.0769C22.5671 23.5867 21.7406 23.5867 21.2308 23.0769L0.923078 2.76923Z" fill="#252641"/>
<path d="M21.2308 0.923077C21.7406 0.413276 22.5671 0.413276 23.0769 0.923078V0.923078C23.5867 1.43288 23.5867 2.25943 23.0769 2.76923L2.76923 23.0769C2.25943 23.5867 1.43288 23.5867 0.923078 23.0769V23.0769C0.413276 22.5671 0.413276 21.7406 0.923077 21.2308L21.2308 0.923077Z" fill="#252641"/>
</svg>
