<svg width="33" height="26" viewBox="0 0 33 26" fill="none" xmlns="http://www.w3.org/2000/svg">
<path d="M5.35022 11.75C7.00491 11.75 8.35022 10.2926 8.35022 8.5C8.35022 6.70742 7.00491 5.25 5.35022 5.25C3.69553 5.25 2.35022 6.70742 2.35022 8.5C2.35022 10.2926 3.69553 11.75 5.35022 11.75ZM26.3502 11.75C28.0049 11.75 29.3502 10.2926 29.3502 8.5C29.3502 6.70742 28.0049 5.25 26.3502 5.25C24.6955 5.25 23.3502 6.70742 23.3502 8.5C23.3502 10.2926 24.6955 11.75 26.3502 11.75ZM27.8502 13.375H24.8502C24.0252 13.375 23.2799 13.7355 22.7362 14.3195C24.6252 15.4418 25.9658 17.468 26.2565 19.875H29.3502C30.1799 19.875 30.8502 19.1488 30.8502 18.25V16.625C30.8502 14.8324 29.5049 13.375 27.8502 13.375ZM15.8502 13.375C18.7518 13.375 21.1002 10.8309 21.1002 7.6875C21.1002 4.54414 18.7518 2 15.8502 2C12.9487 2 10.6002 4.54414 10.6002 7.6875C10.6002 10.8309 12.9487 13.375 15.8502 13.375ZM19.4502 15H19.0612C18.0862 15.5078 17.0033 15.8125 15.8502 15.8125C14.6971 15.8125 13.619 15.5078 12.6393 15H12.2502C9.26897 15 6.85022 17.6203 6.85022 20.85V22.3125C6.85022 23.6582 7.85803 24.75 9.10022 24.75H22.6002C23.8424 24.75 24.8502 23.6582 24.8502 22.3125V20.85C24.8502 17.6203 22.4315 15 19.4502 15ZM8.96428 14.3195C8.42053 13.7355 7.67522 13.375 6.85022 13.375H3.85022C2.19553 13.375 0.85022 14.8324 0.85022 16.625V18.25C0.85022 19.1488 1.52053 19.875 2.35022 19.875H5.43928C5.73459 17.468 7.07522 15.4418 8.96428 14.3195Z" fill="#2F327D"/>
</svg>
