<svg width="23" height="37" viewBox="0 0 23 37" fill="none" xmlns="http://www.w3.org/2000/svg">
<path d="M11.7084 19.809C10.6665 19.809 9.6672 19.4007 8.93045 18.674C8.1937 17.9473 7.7798 16.9617 7.7798 15.934C7.7798 14.9063 8.1937 13.9206 8.93045 13.1939C9.6672 12.4672 10.6665 12.059 11.7084 12.059C12.7503 12.059 13.7495 12.4672 14.4863 13.1939C15.223 13.9206 15.6369 14.9063 15.6369 15.934C15.6369 16.4429 15.5353 16.9467 15.3379 17.4169C15.1405 17.887 14.8511 18.3142 14.4863 18.674C14.1215 19.0338 13.6884 19.3193 13.2118 19.514C12.7351 19.7088 12.2243 19.809 11.7084 19.809ZM11.7084 5.08398C8.79099 5.08398 5.9931 6.22711 3.9302 8.26188C1.8673 10.2966 0.708374 13.0564 0.708374 15.934C0.708374 24.0715 11.7084 36.084 11.7084 36.084C11.7084 36.084 22.7084 24.0715 22.7084 15.934C22.7084 13.0564 21.5494 10.2966 19.4865 8.26188C17.4236 6.22711 14.6258 5.08398 11.7084 5.08398Z" fill="white"/>
</svg>
