<svg width="30" height="30" viewBox="0 0 30 30" fill="none" xmlns="http://www.w3.org/2000/svg">
<path d="M15 6C5.71091 6 0 15 0 15C0 15 5.71091 24 15 24C24.2891 24 30 15 30 15C30 15 24.2891 6 15 6ZM15 21C9.62318 21 5.55545 17.274 3.57409 15C4.99227 13.3725 7.47682 11.0145 10.7386 9.7965C9.9705 10.8464 9.54974 12.1524 9.54545 13.5C9.54545 15.0913 10.1201 16.6174 11.1431 17.7426C12.166 18.8679 13.5534 19.5 15 19.5C16.4466 19.5 17.834 18.8679 18.8569 17.7426C19.8799 16.6174 20.4545 15.0913 20.4545 13.5C20.4503 12.1524 20.0295 10.8464 19.2614 9.7965C22.5245 11.0145 25.0105 13.374 26.4259 15C24.4418 17.277 20.3755 21 15 21Z" fill="#49BBBD"/>
</svg>
