<svg width="24" height="24" viewBox="0 0 24 24" fill="none" xmlns="http://www.w3.org/2000/svg">
<path d="M10.7156 14.9474C10.7156 13.8105 10.8266 12.9928 11.0486 12.4943C11.2706 11.9958 11.7407 11.4521 12.4587 10.8632C13.0856 10.3579 13.5636 9.91916 13.8927 9.54695C14.2217 9.17474 14.3859 8.75032 14.3853 8.27368C14.3853 7.69825 14.1752 7.22105 13.755 6.8421C13.3349 6.46316 12.7498 6.27368 12 6.27368C11.2202 6.27368 10.6275 6.49123 10.222 6.92632C9.81651 7.3614 9.53028 7.80351 9.3633 8.25263L7 7.32632C7.3211 6.42807 7.90979 5.64912 8.76605 4.98947C9.62232 4.32982 10.7003 4 12 4C13.6055 4 14.8404 4.41067 15.7046 5.232C16.5688 6.05333 17.0006 7.03916 17 8.18947C17 8.89123 16.8358 9.49137 16.5073 9.98989C16.1789 10.4884 15.6627 11.0532 14.9587 11.6842C14.2095 12.3439 13.7547 12.8458 13.5945 13.1899C13.4342 13.534 13.3538 14.1199 13.3532 14.9474H10.7156ZM12 20C11.4954 20 11.0636 19.8349 10.7046 19.5048C10.3456 19.1747 10.1657 18.7784 10.1651 18.3158C10.1651 17.8526 10.345 17.456 10.7046 17.1259C11.0642 16.7958 11.496 16.631 12 16.6316C12.5046 16.6316 12.9367 16.7966 13.2963 17.1267C13.656 17.4568 13.8355 17.8532 13.8349 18.3158C13.8349 18.7789 13.655 19.1756 13.2954 19.5057C12.9358 19.8358 12.504 20.0006 12 20Z" fill="#696984" fill-opacity="0.6"/>
<rect x="1" y="1" width="22" height="22" rx="11" stroke="#696984" stroke-opacity="0.6" stroke-width="2"/>
</svg>
