<svg width="24" height="28" viewBox="0 0 24 28" fill="none" xmlns="http://www.w3.org/2000/svg">
<path d="M12.7059 28L12.3529 23.8H12C8.65882 23.8 5.82353 22.645 3.49412 20.335C1.16471 18.025 0 15.2133 0 11.9C0 8.58667 1.16471 5.775 3.49412 3.465C5.82353 1.155 8.65882 0 12 0C13.6706 0 15.2296 0.308933 16.6772 0.9268C18.1247 1.54467 19.3953 2.39633 20.4889 3.4818C21.5826 4.56727 22.4409 5.82727 23.064 7.2618C23.6871 8.69633 23.9991 10.2424 24 11.9C24 15.4467 22.9294 18.6261 20.7882 21.4382C18.6471 24.2503 15.9529 26.4376 12.7059 28ZM11.9647 19.565C12.3647 19.565 12.7059 19.425 12.9882 19.145C13.2706 18.865 13.4118 18.5267 13.4118 18.13C13.4118 17.7333 13.2706 17.395 12.9882 17.115C12.7059 16.835 12.3647 16.695 11.9647 16.695C11.5647 16.695 11.2235 16.835 10.9412 17.115C10.6588 17.395 10.5176 17.7333 10.5176 18.13C10.5176 18.5267 10.6588 18.865 10.9412 19.145C11.2235 19.425 11.5647 19.565 11.9647 19.565ZM12 15.12C12.2588 15.12 12.4941 15.0267 12.7059 14.84C12.9176 14.6533 13.0588 14.3967 13.1294 14.07C13.1765 13.7667 13.3059 13.4923 13.5176 13.2468C13.7294 13.0013 14.0941 12.6224 14.6118 12.11C15.0353 11.69 15.3882 11.235 15.6706 10.745C15.9529 10.255 16.0941 9.73 16.0941 9.17C16.0941 7.98 15.6885 7.08727 14.8772 6.4918C14.0659 5.89633 13.1068 5.59907 12 5.6C11.1765 5.6 10.4645 5.78667 9.864 6.16C9.26353 6.53333 8.77553 7 8.4 7.56C8.23529 7.81667 8.20612 8.085 8.31247 8.365C8.41882 8.645 8.63624 8.84333 8.96471 8.96C9.2 9.05333 9.4353 9.05333 9.67059 8.96C9.90588 8.86667 10.1176 8.69167 10.3059 8.435C10.4941 8.17833 10.7238 7.96833 10.9948 7.805C11.2659 7.64167 11.6009 7.56 12 7.56C12.6353 7.56 13.112 7.735 13.4301 8.085C13.7482 8.435 13.9068 8.82 13.9059 9.24C13.9059 9.63667 13.7882 9.99273 13.5529 10.3082C13.3176 10.6237 13.0353 10.9443 12.7059 11.27C12.0471 11.83 11.6056 12.285 11.3816 12.635C11.1576 12.985 11.0226 13.4633 10.9765 14.07C10.9529 14.35 11.0414 14.595 11.2419 14.805C11.4424 15.015 11.6951 15.12 12 15.12Z" fill="#2F327D"/>
</svg>
