<svg width="24" height="25" viewBox="0 0 24 25" fill="none" xmlns="http://www.w3.org/2000/svg">
<path fill-rule="evenodd" clip-rule="evenodd" d="M22.7203 6.6875C22.8872 6.15875 22.7203 5.77437 21.982 5.77437H19.5272C18.908 5.77437 18.622 6.11094 18.4552 6.47094C18.4552 6.47094 17.1923 9.54594 15.4289 11.5395C14.857 12.1161 14.595 12.3083 14.2852 12.3083C14.1183 12.3083 13.9036 12.1161 13.9036 11.5878V6.66266C13.9036 6.03828 13.7133 5.75 13.1887 5.75H9.32812C8.94656 5.75 8.70844 6.03828 8.70844 6.32656C8.70844 6.92703 9.59016 7.07141 9.68531 8.75281V12.4062C9.68531 13.1989 9.54469 13.3438 9.2325 13.3438C8.39859 13.3438 6.37313 10.2448 5.15812 6.71375C4.92188 6.01437 4.68188 5.75 4.06219 5.75H1.58391C0.869063 5.75 0.75 6.08609 0.75 6.44656C0.75 7.09531 1.58391 10.362 4.63406 14.6858C6.65953 17.6389 9.54281 19.2261 12.1402 19.2261C13.7133 19.2261 13.9036 18.8656 13.9036 18.2652V16.0311C13.9036 15.3106 14.0466 15.1906 14.5472 15.1906C14.9044 15.1906 15.548 15.3823 17.0016 16.7998C18.6694 18.4813 18.9553 19.25 19.8848 19.25H22.3392C23.0541 19.25 23.3878 18.8895 23.197 18.193C22.9828 17.4964 22.1723 16.4877 21.1238 15.2867C20.5519 14.6145 19.6941 13.8697 19.432 13.5092C19.0748 13.0287 19.17 12.8366 19.432 12.4044C19.4081 12.4044 22.4109 8.12844 22.7203 6.68563" fill="#2F327D"/>
</svg>
