<svg width="46" height="30" viewBox="0 0 46 30" fill="none" xmlns="http://www.w3.org/2000/svg">
<path d="M18.4 21.4286L30.337 15L18.4 8.57143V21.4286ZM44.988 4.65C45.287 5.65714 45.494 7.00714 45.632 8.72143C45.793 10.4357 45.862 11.9143 45.862 13.2L46 15C46 19.6929 45.632 23.1429 44.988 25.35C44.413 27.2786 43.079 28.5214 41.009 29.0571C39.928 29.3357 37.95 29.5286 34.914 29.6571C31.924 29.8071 29.187 29.8714 26.657 29.8714L23 30C13.363 30 7.36 29.6571 4.991 29.0571C2.921 28.5214 1.587 27.2786 1.012 25.35C0.713 24.3429 0.506 22.9929 0.368 21.2786C0.207 19.5643 0.138 18.0857 0.138 16.8L0 15C0 10.3071 0.368 6.85714 1.012 4.65C1.587 2.72143 2.921 1.47857 4.991 0.942857C6.072 0.664286 8.05 0.471428 11.086 0.342857C14.076 0.192857 16.813 0.128571 19.343 0.128571L23 0C32.637 0 38.64 0.342857 41.009 0.942857C43.079 1.47857 44.413 2.72143 44.988 4.65Z" fill="#49BBBD"/>
</svg>
